<svg width="182" height="157" viewBox="0 0 182 157" fill="none" xmlns="http://www.w3.org/2000/svg">
<path d="M173.82 25.647L172.733 23.8563C163.573 8.76099 147.01 -0.338727 129.549 0.765537C127.304 0.907665 125.069 1.21158 122.864 1.68332C106.988 5.08179 93.1737 17.0876 87.4478 32.4636C84.08 41.5064 83.1391 51.9185 76.7489 59.096C68.4319 68.4376 54.3118 68.7309 41.8973 68.3439C29.4827 67.9568 15.3531 68.2869 7.07691 77.6653C1.89327 83.539 0.246194 91.8913 0.66401 99.7572C1.77079 120.582 16.282 139.203 34.7369 148.459C53.1919 157.714 74.9203 158.543 95.1181 154.472C123.413 148.768 150.321 133.104 166.494 108.912C182.667 84.7193 186.76 51.7587 173.82 25.647Z" fill="#F5F5F5"/>
</svg>
