<svg width="183" height="154" viewBox="0 0 183 154" fill="none" xmlns="http://www.w3.org/2000/svg">
<path d="M130.879 26.1718C132.602 27.1964 135.065 26.7005 136.258 25.0887C137.451 23.4774 137.205 20.976 135.722 19.6273C137.372 18.9777 138.51 17.2061 138.413 15.435C138.316 13.664 136.993 12.0265 135.282 11.5603C135.933 9.93439 135.668 7.97534 134.607 6.58077C133.547 5.18671 131.729 4.40853 129.989 4.60257C128.905 2.29626 126.087 0.959655 123.616 1.58058C122.193 0.596271 120.13 0.661288 118.773 1.73279C117.415 2.8048 116.873 4.7961 117.501 6.4079" fill="#263238"/>
<path d="M131.185 26.9389C134.23 18.4197 130.222 8.99141 121.976 5.27139L121.156 4.90145C112.088 1.43192 104.074 7.19465 100.857 16.3554L86.756 47.9204L94.0337 71.3196L104.91 59.7029L110.194 53.5919C110.194 53.5919 119.284 56.1033 123.22 47.6583C125.121 43.5794 128.352 34.8622 131.185 26.9389Z" fill="#AE7461"/>
<path d="M110.27 53.6115C110.27 53.6115 104.7 51.4912 100.612 45.3348C100.612 45.3348 99.7224 52.349 108.541 55.4073L110.27 53.6115Z" fill="#6F4439"/>
<path d="M125.472 33.6577C125.206 34.3083 124.436 34.6193 123.751 34.3537C123.068 34.0886 122.728 33.3472 122.994 32.6965C123.26 32.0459 124.031 31.7339 124.714 31.999C125.399 32.2646 125.738 33.0075 125.472 33.6577Z" fill="#263238"/>
<path d="M127.485 30.2703C127.263 30.3605 126.651 29.2664 125.345 28.6807C124.048 28.0774 122.787 28.3168 122.718 28.093C122.68 27.9907 122.962 27.774 123.516 27.6586C124.063 27.5412 124.896 27.5633 125.708 27.9333C126.519 28.3047 127.067 28.912 127.322 29.3959C127.584 29.8858 127.591 30.233 127.485 30.2703Z" fill="#263238"/>
<path d="M113.478 28.538C113.211 29.1887 112.441 29.4997 111.756 29.2336C111.073 28.969 110.733 28.2271 110.999 27.5764C111.265 26.9263 112.037 26.6143 112.72 26.8794C113.404 27.1445 113.744 27.8874 113.478 28.538Z" fill="#263238"/>
<path d="M114.547 24.7263C114.325 24.8165 113.712 23.7218 112.406 23.1372C111.11 22.5339 109.849 22.7733 109.779 22.5495C109.741 22.4477 110.022 22.2305 110.578 22.1156C111.125 21.9981 111.957 22.0203 112.769 22.3902C113.58 22.7612 114.129 23.3695 114.384 23.8529C114.645 24.3412 114.652 24.689 114.547 24.7263Z" fill="#263238"/>
<path d="M114.917 36.5416C114.944 36.4645 115.819 36.6903 117.209 37.1151C117.558 37.2311 117.903 37.3072 118.062 37.1051C118.249 36.8999 118.272 36.4776 118.285 36.0169C118.336 35.0694 118.389 34.076 118.444 33.0348C118.706 28.8042 119.055 25.3871 119.226 25.3987C119.396 25.4113 119.322 28.8495 119.061 33.0796C118.988 34.1189 118.92 35.1107 118.854 36.0582C118.809 36.4937 118.832 37.0214 118.436 37.4442C118.234 37.6529 117.908 37.7235 117.669 37.6847C117.426 37.6534 117.237 37.5723 117.068 37.5078C115.712 36.9821 114.889 36.6177 114.917 36.5416Z" fill="#263238"/>
<path d="M116.947 20.4625C116.626 20.7155 115.669 19.8526 114.312 19.1869C112.971 18.4908 111.693 18.2267 111.722 17.8261C111.742 17.6381 112.12 17.4511 112.736 17.4098C113.348 17.3669 114.189 17.5 114.998 17.9077C115.807 18.317 116.402 18.9082 116.716 19.4187C117.035 19.9308 117.095 20.339 116.947 20.4625Z" fill="#263238"/>
<path d="M129.728 25.7217C129.319 25.8941 128.381 25.1003 127.092 24.5015C125.821 23.8655 124.61 23.6215 124.498 23.1977C124.455 22.9971 124.761 22.7778 125.367 22.7138C125.965 22.6473 126.858 22.7748 127.738 23.1992C128.617 23.624 129.267 24.241 129.581 24.748C129.901 25.259 129.914 25.632 129.728 25.7217Z" fill="#263238"/>
<path d="M98.4931 25.2369C99.0309 23.9018 98.3687 22.3575 97.0063 21.8928C95.3547 21.3289 93.1865 21.4332 91.8146 24.753C89.3808 30.6428 95.7957 31.871 95.8759 31.7062C95.9298 31.5948 97.4962 27.7105 98.4931 25.2369Z" fill="#AE7461"/>
<path d="M95.5099 28.9609C95.4918 28.9317 95.3774 28.9906 95.1712 28.9982C94.9701 29.0058 94.6577 28.9392 94.3976 28.6973C93.8699 28.212 93.754 27.0074 94.1642 25.9339C94.3709 25.3921 94.6939 24.9279 95.0583 24.5837C95.4162 24.2268 95.8194 24.0414 96.1551 24.1149C96.4968 24.1714 96.6409 24.4506 96.6444 24.6462C96.6555 24.8437 96.5693 24.9455 96.5966 24.9687C96.6071 24.9904 96.7639 24.9218 96.8168 24.6593C96.8405 24.5323 96.8289 24.3649 96.7377 24.1946C96.6439 24.0212 96.46 23.8766 96.2322 23.81C95.765 23.6538 95.1838 23.9028 94.7832 24.2803C94.3568 24.6497 93.9808 25.1658 93.749 25.7746C93.2964 26.9772 93.4445 28.339 94.1945 28.9367C94.5639 29.2159 94.9611 29.2336 95.1974 29.1686C95.4404 29.099 95.5255 28.9801 95.5099 28.9609Z" fill="#6F4439"/>
<path d="M131.808 12.6842C131.82 12.5159 131.815 12.344 131.791 12.1787C131.612 10.9232 130.756 9.82601 129.644 9.22877C129.109 8.55946 128.55 7.96373 127.995 7.4557C127.803 5.71337 126.796 4.05572 125.277 3.16767C123.552 2.15967 121.287 2.20705 119.574 3.2216C119.321 3.14802 119.065 3.08098 118.808 3.01546C118.004 1.61081 116.587 0.562494 114.998 0.241446C113.216 -0.118914 111.274 0.441534 109.958 1.69599C108.713 0.687486 106.857 0.507053 105.442 1.25801C104.027 2.00847 103.134 3.64647 103.271 5.24264C101.959 5.36814 100.597 6.00216 100.033 7.19412C99.5031 8.31603 100.038 9.89305 101.186 10.2504C99.7269 12.9392 98.5475 16.3513 97.3903 19.3058C96.5754 21.3863 98.6191 23.7616 98.1741 25.2222C95.901 32.6754 99.9602 29.8202 107.424 15.6361C107.621 15.5893 107.824 15.5353 108.036 15.4673C108.465 15.3302 108.695 15.0137 109.101 14.8212C109.587 14.5913 110.119 14.9724 110.582 15.2435C112.189 16.184 114.457 15.7702 115.627 14.3217C115.767 15.1603 116.784 15.5857 117.625 15.4597C118.466 15.3337 119.195 14.8353 119.969 14.4815C120.742 14.1277 121.694 13.9281 122.412 14.3837C122.814 14.6382 123.1 15.0752 123.549 15.2314C124.342 15.5076 125.117 14.7829 125.574 14.0783C125.959 13.4846 126.368 12.7986 126.984 12.5234C127.547 12.5179 128.104 12.5713 128.649 12.7679C128.923 12.9307 129.189 13.1217 129.451 13.29C129.574 13.3686 129.709 13.4372 129.849 13.4992C129.994 13.6322 130.138 13.7789 130.28 13.9492C132.285 16.3473 132.126 22.676 132.126 22.676C133.825 19.3874 133.26 15.7526 131.808 12.6842Z" fill="#263238"/>
<path d="M115.126 3.36017C115.121 3.35362 115.167 3.31128 115.262 3.23467C115.354 3.15756 115.502 3.05374 115.702 2.93832C116.1 2.70799 116.735 2.42777 117.58 2.34108C118.414 2.25339 119.482 2.37838 120.469 2.97965C121.447 3.56429 122.335 4.599 122.681 5.9215L122.511 5.83178C123.082 5.62262 123.705 5.46891 124.353 5.41347C125.918 5.25824 127.468 5.74611 128.492 6.66137C129.535 7.55446 130.054 8.79632 130.038 9.83103C130.04 10.8713 129.666 11.6661 129.321 12.1172C129.15 12.347 128.99 12.5027 128.877 12.6005C128.76 12.6948 128.696 12.7401 128.69 12.7331C128.67 12.7119 128.929 12.5234 129.238 12.0587C129.547 11.6036 129.877 10.8269 129.853 9.83455C129.844 8.84923 129.336 7.68752 128.335 6.84483C127.351 5.984 125.883 5.52737 124.376 5.67505C123.754 5.72847 123.153 5.87513 122.601 6.07472L122.466 6.12361L122.431 5.98551C122.111 4.7371 121.275 3.74321 120.35 3.17419C119.419 2.58955 118.404 2.44945 117.595 2.51093C116.777 2.57192 116.15 2.81837 115.746 3.01947C115.34 3.2246 115.139 3.37781 115.126 3.36017Z" fill="white"/>
<path d="M102.378 5.20786C102.376 5.20332 102.407 5.18316 102.471 5.14788C102.535 5.11512 102.628 5.05767 102.759 5.00374C103.02 4.8984 103.425 4.7714 103.962 4.75376C104.494 4.74166 105.165 4.82331 105.848 5.15998C106.528 5.48002 107.234 6.06516 107.639 6.93809L107.46 6.91591C108.235 5.89531 109.624 5.17762 111.172 5.09345C111.944 5.04658 112.756 5.1383 113.542 5.39736C114.327 5.65793 115.075 6.07423 115.761 6.59436C117.095 7.61546 118.068 8.92788 118.825 10.1768L118.631 10.1521C119.755 9.07303 121.213 8.59424 122.489 8.58819C123.781 8.57508 124.872 9.0428 125.631 9.5725C126.399 10.1093 126.86 10.71 127.128 11.1344C127.262 11.3486 127.353 11.5215 127.404 11.6424C127.458 11.7624 127.482 11.8259 127.475 11.8289C127.457 11.838 127.343 11.5895 127.059 11.1803C126.774 10.7766 126.303 10.205 125.543 9.70052C124.791 9.20256 123.733 8.77164 122.492 8.79987C121.266 8.82053 119.87 9.2958 118.805 10.33L118.693 10.4389L118.611 10.3053C117.858 9.07757 116.898 7.79388 115.602 6.80302C114.937 6.29851 114.213 5.89481 113.461 5.64331C112.71 5.39283 111.929 5.3011 111.188 5.34142C109.699 5.4145 108.375 6.08684 107.627 7.04494L107.52 7.18253L107.448 7.02276C107.079 6.20175 106.421 5.63172 105.773 5.31168C105.125 4.97501 104.48 4.87925 103.965 4.8727C102.913 4.88328 102.391 5.25423 102.378 5.20786Z" fill="white"/>
<path d="M127.209 12.1741C127.214 12.1812 127.142 12.2402 127.008 12.3541C126.88 12.4755 126.696 12.66 126.486 12.9256C126.275 13.1897 126.034 13.5304 125.74 13.922C125.437 14.3005 125.107 14.7828 124.526 15.0943C124.234 15.242 123.855 15.2818 123.514 15.1603C123.169 15.0505 122.869 14.8393 122.556 14.6513C122.246 14.4648 121.908 14.2884 121.537 14.2778C121.165 14.2683 120.777 14.3938 120.397 14.5515C120.015 14.7113 119.632 14.9159 119.233 15.1109C118.845 15.303 118.44 15.5666 117.946 15.6452C117.462 15.7258 116.955 15.6638 116.481 15.4975C116.244 15.4128 116.009 15.3004 115.799 15.1346C115.589 14.9749 115.408 14.7269 115.369 14.4315L115.597 14.493C115.363 14.7914 115.092 15.0726 114.768 15.2974C114.442 15.5172 114.078 15.6885 113.691 15.7999C112.913 16.0086 112.062 15.9819 111.271 15.7374C110.939 15.6452 110.628 15.5015 110.326 15.3508C110.02 15.1785 109.779 14.993 109.482 14.9713C109.183 14.9361 108.913 15.0177 108.636 15.183C108.348 15.3367 108.05 15.4632 107.749 15.5701C106.553 15.9904 105.234 16.1053 104.129 15.6205C103.048 15.1034 102.327 14.1654 101.932 13.2235C101.54 12.2689 101.478 11.2785 101.66 10.4409L101.73 10.5472C100.917 10.3683 100.333 9.81189 100.046 9.24287C99.7501 8.66327 99.7577 8.07662 99.855 7.64771C99.9532 7.21075 100.139 6.91036 100.277 6.7269C100.349 6.63568 100.407 6.57016 100.451 6.53034C100.494 6.48952 100.517 6.47037 100.52 6.47339C100.558 6.49053 100.129 6.8146 99.9512 7.66787C99.8716 8.08417 99.8812 8.64059 100.172 9.17786C100.453 9.70806 101.015 10.2191 101.766 10.3718L101.854 10.3895L101.836 10.4782C101.674 11.2826 101.744 12.2311 102.13 13.1413C102.514 14.0379 103.222 14.9305 104.227 15.4018C105.247 15.8458 106.512 15.7394 107.663 15.3292C107.953 15.2254 108.24 15.1029 108.516 14.9547C108.783 14.7894 109.16 14.6624 109.513 14.7133C109.691 14.7329 109.865 14.7889 110.024 14.8731L110.45 15.121C110.737 15.2637 111.033 15.4007 111.347 15.4874C112.097 15.7198 112.897 15.743 113.622 15.5509C113.983 15.4476 114.32 15.2899 114.622 15.0878C114.923 14.8806 115.174 14.6206 115.394 14.3439L115.582 14.107L115.622 14.4053C115.679 14.8342 116.142 15.115 116.565 15.2657C117.005 15.4219 117.47 15.4804 117.908 15.4098C118.344 15.3453 118.728 15.1039 119.131 14.9063C119.533 14.7138 119.916 14.5122 120.314 14.3499C120.709 14.1911 121.12 14.0576 121.546 14.0722C121.978 14.0908 122.343 14.2945 122.658 14.488C122.974 14.6851 123.263 14.8902 123.571 14.9925C123.876 15.1049 124.195 15.0747 124.458 14.9497C124.988 14.681 125.335 14.2138 125.641 13.8464C125.943 13.4654 126.196 13.1302 126.42 12.8722C126.643 12.6121 126.841 12.4337 126.98 12.3218C127.125 12.2145 127.206 12.1686 127.209 12.1741Z" fill="#455A64"/>
<path d="M4.08533 123.086C4.08533 123.086 1.48217 130.023 0.570438 131.885C-0.341298 133.747 0.570438 153.801 0.570438 153.801H59.8917L60.7299 136.163L32.1707 118.945L4.08533 123.086Z" fill="#263238"/>
<path d="M130.16 95.0025L153.51 99.41C153.51 99.41 153.066 109.508 153.363 109.257C153.659 109.005 120.634 108.947 120.634 108.947L130.16 95.0025Z" fill="#AE7461"/>
<path d="M153.096 99.3863L169.281 104.382L176.389 109.379L182.722 116.204C182.722 116.204 182.652 118.104 180.259 116.908C177.867 115.711 175.544 113.46 175.544 113.46L180.259 122.116C180.259 122.116 178.359 124.016 176.811 121.271C175.262 118.527 172.94 115.008 172.94 115.008L171.533 113.953C171.533 113.953 173.011 116.557 173.011 117.26C173.011 117.964 171.533 121.905 171.533 121.905L169.211 125.071C169.211 125.071 167.804 124.931 167.909 123.453C168.014 121.975 168.859 120.92 168.859 120.92L166.044 123.383C166.044 123.383 165.059 122.82 165.904 120.99L166.959 119.864L167.311 118.105L166.466 116.768C166.466 116.768 164.285 116.908 162.596 114.375C160.907 111.842 158.303 112.335 154.644 110.153C150.985 107.972 151.337 105.579 151.337 105.579L153.096 99.3863Z" fill="#AE7461"/>
<path d="M161.785 105.555C161.838 105.545 161.83 106.367 162.398 107.504C162.68 108.068 163.098 108.7 163.665 109.315C164.226 109.936 164.924 110.543 165.679 111.157C166.425 111.776 167.202 112.326 167.72 113.039C168.241 113.74 168.43 114.595 168.227 115.247C168.018 115.905 167.512 116.243 167.164 116.342C166.985 116.395 166.839 116.397 166.743 116.39C166.647 116.378 166.599 116.363 166.6 116.354C166.6 116.328 166.806 116.37 167.13 116.246C167.443 116.127 167.886 115.787 168.048 115.197C168.208 114.607 168.023 113.831 167.525 113.183C167.032 112.523 166.266 111.984 165.513 111.36C164.755 110.743 164.049 110.12 163.484 109.476C162.914 108.837 162.498 108.174 162.23 107.583C161.96 106.992 161.842 106.474 161.798 106.115C161.755 105.756 161.771 105.556 161.785 105.555Z" fill="#6F4439"/>
<path d="M175.392 113.078C175.383 113.094 175.228 113.025 174.956 112.888C174.683 112.75 174.294 112.542 173.817 112.277C172.864 111.745 171.565 110.982 170.159 110.089C169.04 109.379 168.021 108.694 167.215 108.13L167.307 108.143C166.584 108.365 165.987 108.542 165.57 108.659C165.152 108.775 164.914 108.831 164.907 108.81C164.9 108.789 165.126 108.695 165.532 108.544C165.938 108.393 166.526 108.187 167.241 107.942L167.288 107.926L167.334 107.955C168.189 108.507 169.203 109.16 170.3 109.868C171.702 110.759 172.984 111.545 173.911 112.117C174.839 112.687 175.411 113.045 175.392 113.078Z" fill="#6F4439"/>
<path d="M171.452 113.353C171.505 113.394 171.011 113.945 170.16 114.165C169.311 114.392 168.61 114.156 168.636 114.094C168.65 114.016 169.316 114.122 170.093 113.911C170.874 113.712 171.402 113.293 171.452 113.353Z" fill="#6F4439"/>
<path d="M168.747 115.014C168.815 114.995 169.289 116.306 169.799 117.966C169.942 118.415 169.82 118.892 169.659 119.231C169.498 119.582 169.323 119.866 169.205 120.116C168.951 120.612 168.983 120.965 168.938 120.968C168.911 120.982 168.809 120.592 169.034 120.043C169.136 119.772 169.298 119.471 169.436 119.136C169.575 118.799 169.667 118.424 169.545 118.033C169.041 116.394 168.676 115.034 168.747 115.014Z" fill="#6F4439"/>
<path d="M2.46698 119.605L23.2807 97.138C23.2807 97.138 50.668 50.1113 56.1143 45.7764C69.7369 34.9348 85.1996 40.6114 85.1996 40.6114L90.7093 38.5198L99.9925 62.1014C99.9925 62.1014 96.5522 67.1379 96.2085 68.1454C95.8642 69.1529 54.5816 131.608 54.5816 131.608L39.8305 152.266C39.8305 152.266 16.9696 147.986 7.18543 135.498C2.71343 129.79 2.46698 119.605 2.46698 119.605Z" fill="#455A64"/>
<path d="M102.299 61.5768L105.353 58.9736L105.387 66.9162L110.666 74.3728C110.666 74.3728 95.2146 92.9846 92.0364 96.0867C88.8586 99.1883 63.4354 129.371 63.4354 129.371C63.4354 129.371 62.0907 143.687 60.3796 147.744C58.6685 151.8 47.1254 150.732 47.1254 150.732L52.8614 134.305L55.2459 122.452L84.0913 84.2764L95.4147 69.4528L102.299 61.5768Z" fill="#455A64"/>
<path d="M94.5725 87.116C94.5725 87.5897 110.271 102.596 110.271 102.596C110.271 102.596 111.404 105.44 112.699 105.914C113.994 106.387 120.467 109.389 120.467 109.389L130.609 94.8559C130.609 94.8559 125.484 90.1168 124.027 89.327C122.571 88.5372 119.065 84.4569 119.065 84.4569L107.315 70.3484L98.2945 74.9499L94.5725 87.116Z" fill="#455A64"/>
<path d="M95.4152 69.4523C95.4106 69.4493 95.4338 69.4014 95.4842 69.3117C95.5447 69.2063 95.6198 69.0763 95.712 68.9165C95.9307 68.5521 96.2306 68.0522 96.6081 67.4232C97.4085 66.1173 98.5359 64.2772 99.9028 62.0465L100.02 62.2048C97.5657 62.859 94.6476 63.6371 91.4809 64.4813L91.3559 64.5146L91.3227 64.3891C91.0334 63.2919 90.7315 62.1468 90.4235 60.979C88.963 55.37 87.6415 50.2942 86.6773 46.5908C86.2151 44.7654 85.8387 43.2796 85.571 42.2232C85.4506 41.7242 85.3543 41.3276 85.2833 41.0322C85.2203 40.7591 85.1915 40.6149 85.2001 40.6124C85.2087 40.6099 85.255 40.75 85.3342 41.0186C85.4173 41.3104 85.5292 41.7031 85.6698 42.197C85.9571 43.2483 86.3608 44.7266 86.8567 46.5435C87.84 50.2418 89.1882 55.3111 90.6776 60.912C90.9845 62.0803 91.2849 63.2259 91.5732 64.3231L91.4149 64.2309C94.5861 63.4033 97.5083 62.6407 99.9658 61.9996L100.226 61.9316L100.083 62.1579C98.6836 64.3684 97.5294 66.1919 96.7104 67.4862C96.3123 68.1026 95.9958 68.5925 95.7654 68.9493C95.6626 69.103 95.579 69.2275 95.5114 69.3283C95.452 69.413 95.4197 69.4548 95.4152 69.4523Z" fill="#263238"/>
<path d="M105.385 66.6339C105.393 66.6435 105.297 66.7342 105.112 66.8955C104.893 67.0785 104.623 67.3058 104.296 67.581C103.547 68.1893 102.54 69.0068 101.346 69.9754L101.134 70.1483L101.163 69.8741C101.324 68.3591 101.512 66.5911 101.713 64.7051C101.774 64.1517 101.834 63.6084 101.892 63.0893L102.11 63.1971C100.297 64.9193 98.6917 66.4288 97.5335 67.5018C96.976 68.0114 96.5164 68.4322 96.1621 68.7563C95.837 69.0466 95.6535 69.1998 95.642 69.1882C95.6309 69.1766 95.7921 69.0002 96.0976 68.6892C96.4378 68.3505 96.8798 67.9111 97.415 67.3783C98.5415 66.2721 100.125 64.7394 101.93 63.0102L102.187 62.7642L102.149 63.118C102.093 63.6371 102.033 64.181 101.973 64.7344C101.76 66.6188 101.559 68.3858 101.388 69.8998L101.205 69.7985C102.422 68.8596 103.449 68.0678 104.213 67.4781C104.556 67.2231 104.839 67.0119 105.068 66.8421C105.268 66.6964 105.378 66.6243 105.385 66.6339Z" fill="#263238"/>
<path d="M107.315 77.8484C107.322 77.854 107.274 77.9276 107.176 78.0626C107.057 78.2199 106.912 78.4124 106.736 78.6452C106.351 79.1482 105.783 79.868 105.074 80.7515C103.656 82.518 101.662 84.9321 99.4063 87.5524C97.1494 90.1727 95.0578 92.5027 93.5211 94.1679C92.753 95.0006 92.1255 95.6689 91.6855 96.125C91.4814 96.3331 91.3126 96.505 91.1745 96.6461C91.0555 96.763 90.99 96.822 90.983 96.8155C90.9764 96.8094 91.0288 96.7389 91.1352 96.6103C91.2632 96.4606 91.4199 96.2777 91.6099 96.0564C92.055 95.5514 92.6547 94.871 93.3835 94.044C94.8839 92.3475 96.9518 90.0004 99.2072 87.3816C101.461 84.7633 103.476 82.3698 104.93 80.634C105.64 79.7903 106.223 79.0968 106.657 78.5812C106.848 78.3605 107.006 78.1785 107.135 78.0294C107.246 77.9049 107.308 77.8424 107.315 77.8484Z" fill="#263238"/>
<path d="M123.309 89.4046C123.324 89.4157 123.185 89.6224 122.922 89.9863C122.661 90.3512 122.269 90.8693 121.775 91.5018C120.785 92.7658 119.367 94.4744 117.699 96.2701C116.029 98.0649 114.428 99.6041 113.239 100.683C112.644 101.222 112.156 101.65 111.811 101.938C111.467 102.226 111.271 102.379 111.259 102.366C111.247 102.352 111.42 102.173 111.743 101.862C112.103 101.516 112.562 101.075 113.112 100.548C114.266 99.4362 115.842 97.8814 117.506 96.0917C119.169 94.3015 120.606 92.6176 121.63 91.3859C122.117 90.7992 122.523 90.3083 122.842 89.9243C123.129 89.579 123.294 89.3936 123.309 89.4046Z" fill="#263238"/>
<path d="M44.7737 145.895C44.7737 145.895 44.8115 145.824 44.8957 145.692C44.9874 145.551 45.1134 145.357 45.2757 145.108C45.6215 144.588 46.1194 143.839 46.7575 142.879C48.0618 140.94 49.9372 138.153 52.2521 134.712C56.899 127.82 63.3507 118.322 70.3961 107.778C77.4249 97.2176 83.7708 87.6487 87.9726 80.4743C90.1322 76.9221 92.0106 74.1238 93.4188 72.2722C94.1159 71.3418 94.6824 70.6377 95.0785 70.171C95.271 69.9447 95.4207 69.7688 95.5301 69.6408C95.6329 69.5223 95.6909 69.4659 95.6909 69.4659C95.6909 69.4659 95.647 69.5339 95.5507 69.6579C95.4464 69.7899 95.3038 69.9714 95.1198 70.2042C94.7373 70.681 94.1849 71.3942 93.501 72.3326C92.1205 74.2005 90.2698 77.0082 88.1314 80.5705C83.9703 87.7691 77.6421 97.3653 70.6143 107.924C63.5679 118.469 57.092 127.951 52.4058 134.816C50.0622 138.237 48.1631 141.009 46.8422 142.936C46.1865 143.885 45.6749 144.624 45.3196 145.138C45.1482 145.38 45.0152 145.569 44.9184 145.707C44.8262 145.834 44.7737 145.895 44.7737 145.895Z" fill="#263238"/>
<path d="M45.9294 120.881C45.9234 120.888 45.8498 120.836 45.7142 120.729C45.5575 120.602 45.365 120.445 45.1306 120.255C44.6261 119.841 43.9104 119.224 43.0395 118.448C41.2967 116.895 38.9541 114.674 36.5057 112.086C34.0592 109.494 31.9747 107.028 30.5232 105.2C29.7969 104.287 29.2218 103.538 28.8368 103.011C28.6604 102.766 28.5147 102.565 28.3968 102.401C28.2985 102.26 28.2506 102.184 28.2577 102.178C28.2648 102.172 28.3272 102.238 28.4386 102.369C28.5672 102.524 28.7254 102.716 28.9174 102.948C29.3554 103.482 29.9471 104.204 30.6668 105.083C32.1526 106.879 34.2548 109.319 36.6957 111.905C39.1386 114.488 41.4554 116.725 43.1635 118.311C44.0001 119.079 44.6876 119.711 45.1966 120.178C45.4174 120.383 45.5993 120.552 45.7475 120.689C45.873 120.808 45.9355 120.874 45.9294 120.881Z" fill="#263238"/>
<path d="M78.0907 48.0711C78.067 48.0857 77.8684 47.742 77.4209 47.1901C76.9673 46.6473 76.2355 45.9069 75.1488 45.2517C74.0678 44.5884 72.6425 44.0492 71.0115 43.6414C69.3846 43.2322 67.5435 42.9288 65.6101 43.0104C63.6788 43.091 61.8654 43.589 60.3993 44.3949C58.9211 45.1847 57.783 46.2138 56.957 47.1709C56.1319 48.1361 55.6042 49.0272 55.2736 49.6556C54.9395 50.2841 54.7938 50.6531 54.7686 50.6425C54.76 50.6389 54.7913 50.5452 54.8583 50.3688C54.9253 50.1924 55.0226 49.9313 55.1824 49.6098C55.4873 48.9626 55.9963 48.0459 56.8153 47.051C57.6359 46.0636 58.7814 45.0007 60.2844 44.1822C61.7752 43.3471 63.6325 42.83 65.5991 42.7483C67.5682 42.6652 69.433 42.9812 71.072 43.4076C72.713 43.8314 74.1575 44.3979 75.2461 45.0939C76.3408 45.7824 77.0661 46.5581 77.5005 47.1266C77.7112 47.4184 77.8684 47.6482 77.9576 47.8155C78.0529 47.9788 78.0988 48.0665 78.0907 48.0711Z" fill="#263238"/>
<path d="M52.862 54.7657C52.862 54.7657 51.9739 85.927 52.862 100.696C53.1331 105.203 54.8079 108.184 55.1532 108.285C56.0588 108.553 74.3576 107.004 74.3576 107.004C74.3576 107.004 74.5042 101.412 75.8847 99.3148C77.2651 97.2176 73.7276 98.0926 73.7276 98.0926C73.7276 98.0926 81.2835 59.6817 80.339 52.6141" fill="#455A64"/>
<path d="M80.3396 52.6147C80.3396 52.6147 80.3879 52.9136 80.4278 53.4937C80.4504 54.0743 80.4635 54.9362 80.399 56.05C80.2917 58.2792 79.9545 61.5164 79.4046 65.5645C78.3054 73.6623 76.3791 85.0103 73.8516 98.1174L73.6983 97.9717C74.163 97.8659 74.6297 97.7913 75.1161 97.7867C75.3585 97.7862 75.607 97.8034 75.8565 97.8896C75.9794 97.9359 76.107 98.007 76.2017 98.1254C76.298 98.2434 76.3358 98.4011 76.3312 98.5412C76.3096 98.8204 76.1911 99.0503 76.0666 99.263C75.9381 99.4777 75.8272 99.6641 75.7234 99.8773C75.5294 100.303 75.3706 100.751 75.2502 101.213C74.7618 103.064 74.5753 105.032 74.4881 107.008L74.4831 107.125L74.3692 107.134C71.8774 107.336 69.2455 107.548 66.5763 107.764C64.3239 107.937 62.0983 108.103 59.9019 108.245C58.8031 108.312 57.714 108.383 56.6284 108.422C56.3577 108.436 56.0861 108.441 55.8134 108.442C55.6743 108.439 55.5493 108.453 55.3971 108.435L55.1774 108.416C55.1254 108.435 54.9737 108.33 54.948 108.287C54.5695 107.837 54.3594 107.35 54.1331 106.858C53.2874 104.878 52.869 102.785 52.739 100.73C52.6891 99.706 52.6392 98.6929 52.5903 97.691C52.5576 96.689 52.5258 95.6982 52.4941 94.7199C52.303 86.8913 52.3539 79.8408 52.4195 73.9218C52.4895 68.0024 52.5974 63.2134 52.6851 59.9041C52.735 58.256 52.7733 56.9743 52.8 56.0938C52.8171 55.6649 52.8297 55.3353 52.8393 55.1035C52.8499 54.8802 52.862 54.7663 52.862 54.7663C52.862 54.7663 52.8675 54.8807 52.866 55.1045C52.863 55.3369 52.8584 55.6665 52.8529 56.0959C52.8378 56.9764 52.8156 58.2585 52.7874 59.9066C52.7314 63.2164 52.6518 68.0054 52.6049 73.9239C52.5631 79.8418 52.5319 86.8918 52.7355 94.7134C52.7687 95.6906 52.8025 96.68 52.8368 97.6814C52.8872 98.6814 52.9381 99.6929 52.989 100.715C53.119 102.744 53.5368 104.814 54.3684 106.755C54.5816 107.227 54.816 107.732 55.1315 108.105C55.1527 108.133 55.1703 108.145 55.1779 108.148C55.1794 108.16 55.2056 108.166 55.2404 108.166L55.4223 108.179C55.5377 108.194 55.6829 108.182 55.8134 108.184C56.0805 108.183 56.3487 108.177 56.6193 108.164C57.6989 108.124 58.788 108.053 59.8852 107.985C62.0791 107.843 64.3048 107.676 66.5562 107.503C69.2248 107.288 71.8562 107.076 74.3475 106.876L74.2286 107.002C74.3183 105.005 74.5047 103.035 75.0037 101.147C75.1272 100.676 75.29 100.214 75.4936 99.769C75.6997 99.3194 76.043 98.9384 76.0782 98.5322C76.0883 98.3371 75.9699 98.2005 75.7693 98.1285C75.5717 98.0589 75.3434 98.0393 75.1171 98.0403C74.6635 98.0433 74.2003 98.1164 73.7588 98.2162L73.5688 98.259L73.6056 98.07C76.1488 84.971 78.1073 73.631 79.2494 65.5444C79.8209 61.5013 80.1823 58.2701 80.3154 56.0465C80.393 54.9352 80.3935 54.0763 80.3849 53.4962C80.3809 53.2064 80.3532 52.9872 80.3481 52.8395C80.3385 52.6908 80.3396 52.6147 80.3396 52.6147Z" fill="#263238"/>
<path d="M74.3046 98.2861C74.3072 98.3038 74.0259 98.3602 73.5139 98.4469C73.0018 98.5336 72.2589 98.6424 71.3371 98.7538C69.495 98.9826 66.9392 99.2105 64.1092 99.3324C61.2783 99.4524 58.7119 99.4438 56.8572 99.3727C55.9298 99.3405 55.1799 99.2956 54.6628 99.2528C54.1456 99.2104 53.8604 99.1782 53.8614 99.1601C53.8624 99.1419 54.1497 99.1394 54.6678 99.1505C55.2323 99.1596 55.9706 99.1722 56.8617 99.1868C58.7139 99.21 61.2737 99.1893 64.0981 99.0698C66.9215 98.9479 69.4733 98.7503 71.3169 98.5689C72.2035 98.4781 72.9383 98.403 73.4998 98.3456C74.0159 98.2902 74.3021 98.268 74.3046 98.2861Z" fill="#263238"/>
<path d="M55.1531 108.285L65.912 153.575H76.6704L73.6615 107.133L55.1531 108.285Z" fill="#AE7461"/>
<path d="M75.7143 147.168L86.4369 149.042L96.0895 151.961C96.9836 152.266 97.5562 152.784 97.1978 153.904L65.9115 153.575V148.137L75.7143 147.168Z" fill="#AE7461"/>
<path d="M92.8665 153.858C92.8372 153.855 92.9103 153.632 92.8488 153.246C92.7984 152.867 92.4728 152.333 91.8131 152.094C91.166 151.851 90.29 151.857 89.3511 151.743C88.401 151.647 87.3663 151.541 86.2802 151.431C84.1019 151.202 82.1313 150.98 80.7065 150.806C80.0366 150.719 79.4722 150.645 79.0206 150.587C78.6229 150.529 78.4042 150.489 78.4062 150.471C78.4082 150.453 78.6305 150.459 79.0312 150.485C79.4853 150.522 80.0523 150.568 80.7256 150.621C82.1555 150.748 84.1291 150.941 86.3074 151.17C87.3925 151.288 88.4267 151.4 89.3763 151.503C89.845 151.557 90.2925 151.608 90.7154 151.656C91.1357 151.706 91.5379 151.776 91.8822 151.922C92.5923 152.203 92.931 152.822 92.9496 153.232C92.9718 153.44 92.9416 153.599 92.9214 153.703C92.8942 153.808 92.8755 153.86 92.8665 153.858Z" fill="#6F4439"/>
<g opacity="0.3">
<path d="M74.3046 116.692L78.0907 100.176V95.0026L76.6704 94.0974L79.9978 60.215L73.7286 98.0926L74.4846 98.0281C75.3469 97.9545 76.4189 97.7539 76.2108 98.5936L75.0304 101.183L73.721 108.042L74.3046 116.692Z" fill="black"/>
</g>
<path d="M109.82 36.9861C108.626 38.237 108.272 40.0358 109.263 41.4535C109.606 41.9454 110.172 42.2912 110.765 42.3829C111.49 42.4953 112.231 42.4358 112.798 41.8981C113.331 41.3936 113.833 40.8447 114.071 40.1512C112.9 39.2243 110.991 37.9134 109.82 36.9861Z" fill="#6F4439"/>
<path d="M112.414 42.1939C112.419 42.2055 112.253 42.3073 111.912 42.3784C111.575 42.4434 111.05 42.4681 110.458 42.2468C109.868 42.0397 109.234 41.5347 108.877 40.7741C108.506 40.0247 108.454 39.0283 108.814 38.1352C108.99 37.6796 109.248 37.2723 109.549 36.9291L109.628 36.8399L109.723 36.91C110.948 37.8172 112.014 38.6205 112.77 39.2032C113.525 39.7858 113.969 40.1482 113.951 40.1734C113.932 40.1986 113.453 39.8836 112.671 39.3372C111.889 38.7909 110.803 38.0142 109.571 37.1166L109.743 37.0974C109.463 37.422 109.223 37.8051 109.058 38.2294C108.724 39.0641 108.766 39.9713 109.096 40.6713C109.417 41.3794 109.983 41.8572 110.527 42.0734C111.072 42.3023 111.569 42.3088 111.898 42.2766C112.228 42.2403 112.406 42.1727 112.414 42.1939Z" fill="#263238"/>
</svg>
