<svg width="5" height="5" viewBox="0 0 5 5" fill="none" xmlns="http://www.w3.org/2000/svg">
<g clip-path="url(#clip0_1_1544)">
<path d="M1.67478 4.0874C1.56339 4.0869 1.45502 4.05114 1.36522 3.98523C1.27345 3.92067 1.20496 3.82821 1.16996 3.7216C1.13496 3.61499 1.13531 3.49994 1.17096 3.39354L1.34172 2.86534L0.892187 2.53665C0.802053 2.4708 0.735057 2.37813 0.700785 2.27189C0.666513 2.16565 0.66672 2.0513 0.701378 1.94518C0.736036 1.83907 0.803369 1.74664 0.893741 1.68112C0.984114 1.61559 1.0929 1.58033 1.20453 1.58037H1.75477L1.92188 1.05932C1.95618 0.952622 2.02346 0.85956 2.11403 0.79354C2.20459 0.72752 2.31378 0.691948 2.42586 0.691948C2.53793 0.691948 2.64712 0.72752 2.73769 0.79354C2.82826 0.85956 2.89553 0.952622 2.92983 1.05932L3.09753 1.58037H3.64777C3.75939 1.58036 3.86815 1.61564 3.9585 1.68118C4.04885 1.74672 4.11615 1.83915 4.15079 1.94525C4.18543 2.05136 4.18563 2.1657 4.15135 2.27192C4.11708 2.37815 4.05009 2.47081 3.95996 2.53665L3.51058 2.86534L3.68134 3.39354C3.71577 3.50009 3.71552 3.61481 3.68062 3.7212C3.64572 3.8276 3.57798 3.92018 3.48713 3.98564C3.39629 4.0511 3.28702 4.08606 3.17505 4.08548C3.06308 4.08491 2.95418 4.04884 2.86401 3.98246L2.42615 3.66049L1.98829 3.98261C1.89769 4.05018 1.78781 4.08691 1.67478 4.0874ZM1.20453 2.01823C1.18526 2.01823 1.16649 2.02432 1.15089 2.03562C1.13529 2.04693 1.12367 2.06288 1.11768 2.08119C1.11169 2.0995 1.11164 2.11923 1.11754 2.13757C1.12344 2.15591 1.13498 2.17192 1.15052 2.1833L1.72791 2.60525C1.76509 2.63244 1.79275 2.67065 1.80695 2.71447C1.82115 2.75828 1.82118 2.80546 1.80702 2.84928L1.58809 3.52796C1.58201 3.54637 1.58195 3.56624 1.58791 3.58468C1.59387 3.60313 1.60554 3.6192 1.62124 3.63058C1.63694 3.64195 1.65585 3.64804 1.67523 3.64796C1.69462 3.64788 1.71348 3.64164 1.72908 3.63013L2.29669 3.21256C2.33429 3.18489 2.37975 3.16997 2.42644 3.16997C2.47313 3.16997 2.51859 3.18489 2.55619 3.21256L3.1238 3.62998C3.13938 3.6416 3.15827 3.64793 3.1777 3.64806C3.19713 3.64819 3.2161 3.64211 3.23184 3.63071C3.24757 3.6193 3.25926 3.60317 3.26519 3.58467C3.27111 3.56616 3.27097 3.54624 3.26479 3.52782L3.04586 2.84914C3.0317 2.80531 3.03173 2.75814 3.04593 2.71432C3.06013 2.67051 3.08779 2.63229 3.12497 2.60511L3.70221 2.18316C3.71774 2.17178 3.72928 2.15579 3.73518 2.13746C3.74109 2.11914 3.74105 2.09941 3.73508 2.08111C3.72911 2.06281 3.71751 2.04686 3.70193 2.03554C3.68636 2.02422 3.66761 2.01811 3.64835 2.01808H2.93698C2.89061 2.01807 2.84545 2.00334 2.80799 1.97601C2.77053 1.94868 2.74272 1.91016 2.72856 1.866L2.51372 1.19301C2.5078 1.1746 2.49619 1.15853 2.48056 1.14713C2.46493 1.13573 2.44608 1.12959 2.42673 1.12959C2.40739 1.12959 2.38854 1.13573 2.37291 1.14713C2.35727 1.15853 2.34566 1.1746 2.33974 1.19301L2.1233 1.86615C2.10916 1.91023 2.08142 1.9487 2.04405 1.97602C2.00668 2.00335 1.96161 2.01813 1.91531 2.01823H1.20453Z" fill="#FFA239"/>
</g>
<defs>
<clipPath id="clip0_1_1544">
<rect width="3.50286" height="3.50286" fill="white" transform="translate(0.674744 0.666656)"/>
</clipPath>
</defs>
</svg>
