<svg width="21" height="20" viewBox="0 0 21 20" fill="none" xmlns="http://www.w3.org/2000/svg">
<g clip-path="url(#clip0_1_1411)">
<path d="M19.6985 7.40336C17.6748 4.28105 14.2198 2.38208 10.4991 2.34717C6.77854 2.38208 3.32353 4.28105 1.29985 7.40336C0.233385 8.96846 0.233385 11.0268 1.29985 12.5919C3.32239 15.7161 6.77759 17.6171 10.4992 17.6531C14.2198 17.6182 17.6748 15.7192 19.6985 12.5969C20.7672 11.0307 20.7672 8.9696 19.6985 7.40336ZM17.6277 11.1729C16.0827 13.6235 13.3961 15.1186 10.4991 15.1401C7.60222 15.1187 4.91561 13.6235 3.37053 11.1729C2.88886 10.4652 2.88886 9.53502 3.37053 8.82741C4.91557 6.37679 7.60218 4.88166 10.4991 4.86018C13.3961 4.88162 16.0827 6.37679 17.6277 8.82741C18.1094 9.53502 18.1094 10.4652 17.6277 11.1729Z" fill="#992E9D"/>
<path d="M10.4991 13.3508C12.3496 13.3508 13.8497 11.8506 13.8497 10.0001C13.8497 8.14956 12.3496 6.64941 10.4991 6.64941C8.64853 6.64941 7.14838 8.14956 7.14838 10.0001C7.14838 11.8506 8.64853 13.3508 10.4991 13.3508Z" fill="#992E9D"/>
</g>
<defs>
<clipPath id="clip0_1_1411">
<rect width="20" height="20" fill="white" transform="translate(0.5)"/>
</clipPath>
</defs>
</svg>
