<svg width="66" height="89" viewBox="0 0 66 89" fill="none" xmlns="http://www.w3.org/2000/svg">
<path d="M65.033 -0.000183105H60.9355V88.1H65.033V-0.000183105Z" fill="#FFE985"/>
<path d="M1.49622 0.740197V88.1635C1.49622 88.1963 1.52243 88.2225 1.55519 88.2225H60.2535C60.2863 88.2225 60.3125 88.1958 60.3125 88.1635V0.740197C60.3125 0.707437 60.2858 0.680725 60.2535 0.680725H1.55519C1.52243 0.681229 1.49622 0.707941 1.49622 0.740197Z" fill="#FFF4C5"/>
<path d="M60.9355 88.9039H0.87379C0.84103 88.9039 0.814819 88.8777 0.814819 88.8449V0.0587852C0.814819 0.0260252 0.841534 -0.000183105 0.87379 -0.000183105H60.9355C60.9682 -0.000183105 60.9944 0.0260252 60.9944 0.0587852V88.8449C60.9944 88.8777 60.9677 88.9039 60.9355 88.9039ZM2.23661 87.5416H59.5721C59.6049 87.5416 59.6311 87.5149 59.6311 87.4826V1.4216C59.6311 1.38884 59.6049 1.36263 59.5721 1.36263H2.23661C2.20385 1.36263 2.17764 1.38935 2.17764 1.4216V87.4821C2.17764 87.5149 2.20385 87.5416 2.23661 87.5416Z" fill="#FFF4C5"/>
<path d="M7.41821 6.14107V82.7052C7.41821 82.738 7.44493 82.7642 7.47718 82.7642H54.4349C54.4676 82.7642 54.4938 82.7375 54.4938 82.7052V6.14107C54.4938 6.10831 54.4671 6.0821 54.4349 6.0821H7.47718C7.44442 6.0816 7.41821 6.10831 7.41821 6.14107Z" fill="white"/>
<path d="M44.0888 58.8025H17.7205C17.7023 58.8025 17.6882 58.7879 17.6882 58.7703V27.8539C17.6882 27.8358 17.7028 27.8217 17.7205 27.8217H44.0883C44.1059 27.8217 44.1205 27.8363 44.1205 27.8539V58.7703C44.121 58.7879 44.1064 58.8025 44.0888 58.8025Z" fill="#FFF4C5"/>
<path d="M42.0284 55.0109C42.0622 55.1102 40.7578 55.6817 38.2756 55.3909C37.0534 55.2251 35.5323 54.7856 34.0571 53.705C32.6137 52.6239 31.2433 50.8801 30.7791 48.5496C30.2968 46.2373 31.0704 43.3549 33.286 41.5017C33.8364 41.042 34.477 40.6544 35.1866 40.3878C35.9411 40.1076 36.7556 40.0154 37.5645 40.1137C38.3689 40.2119 39.2206 40.4917 39.9418 41.1519C40.6701 41.8126 41.0688 42.9285 40.8793 43.9214C40.7074 44.9238 40.1611 45.6919 39.5739 46.2987C38.9681 46.9172 38.2822 47.3743 37.5826 47.7654C36.1613 48.5506 34.5354 49.043 32.8324 49.1222C31.1365 49.2033 29.3437 48.855 27.7697 47.97C26.2109 47.0946 24.8778 45.7675 24.0442 44.1079C23.1989 42.4683 22.9303 40.4786 23.3759 38.6994C23.8048 36.9269 24.8118 35.3418 26.2265 34.2431C26.9366 33.6927 27.7395 33.2865 28.6159 33.0365C29.499 32.8102 30.4087 32.7674 31.3063 32.9528C32.1943 33.1393 33.102 33.5763 33.7482 34.3303C34.4039 35.0777 34.6967 36.0539 34.7053 36.94C34.7189 37.8305 34.4765 38.6989 34.0682 39.4262C33.6675 40.155 33.1288 40.7462 32.5608 41.2381C31.4172 42.2063 30.134 42.8433 28.816 43.2279C27.4991 43.6064 26.1489 43.7062 24.8768 43.5318C23.6082 43.3529 22.4137 42.8857 21.4481 42.2184C19.4996 40.8964 18.3742 38.8874 18.1736 37.0317C17.9528 35.1417 18.6443 33.5919 19.3867 32.5849C20.1503 31.5583 21.0277 31.0331 21.6305 30.7922C22.2479 30.5583 22.5997 30.5664 22.6153 30.6254C22.641 30.7095 22.3356 30.8456 21.8351 31.1798C21.3447 31.52 20.6517 32.0945 20.0903 33.0551C19.5414 33.9976 19.0883 35.365 19.3756 36.8538C19.6367 38.3371 20.6512 39.9312 22.2872 40.9311C23.8884 41.9487 26.1353 42.2108 28.2934 41.5032C29.3624 41.1584 30.4278 40.5819 31.2987 39.8027C32.1631 39.0275 32.7513 38.0301 32.7024 36.9863C32.6747 35.94 32.0154 35.2022 30.893 34.9875C30.3462 34.8806 29.7328 34.9154 29.1653 35.0686C28.6018 35.241 28.0283 35.5288 27.5349 35.9229C26.5374 36.7076 25.783 37.8986 25.4785 39.1999C25.1661 40.4997 25.352 41.8782 25.9831 43.1276C26.604 44.374 27.6392 45.4122 28.8271 46.084C30.0095 46.7579 31.3859 47.0452 32.7402 46.9943C34.0959 46.9454 35.427 46.5628 36.5882 45.9424C37.1754 45.6254 37.7162 45.2681 38.1239 44.8598C38.5417 44.4511 38.833 43.9844 38.9031 43.5897C38.9792 43.1906 38.8577 42.8438 38.5881 42.5681C38.3048 42.2874 37.8235 42.0752 37.3155 42.0077C36.8049 41.9301 36.2767 41.9785 35.8171 42.1352C35.3116 42.3086 34.8398 42.5727 34.4205 42.9003C33.5819 43.5575 32.9519 44.4576 32.5996 45.4087C32.2407 46.3623 32.1565 47.3491 32.2926 48.2895C32.5723 50.1795 33.6368 51.744 34.8111 52.7515C36.0086 53.7645 37.3311 54.2856 38.4318 54.5583C40.6691 55.0794 42.0108 54.8219 42.0284 55.0109Z" fill="#FFE985"/>
</svg>
