<svg width="108" height="189" viewBox="0 0 108 189" fill="none" xmlns="http://www.w3.org/2000/svg">
<path d="M25.076 45.7459H0.501465V94.4575H25.076V45.7459Z" fill="#FFF4C5"/>
<path d="M52.5727 45.7459H26.0205V94.4575H52.5727V45.7459Z" fill="#FFF4C5"/>
<path d="M52.5727 97.861H26.0205V144.927H52.5727V97.861Z" fill="#FFF4C5"/>
<path d="M55.9758 44.9032H83.9382V1.69176H84.8837V44.9032H107.64V0.733154H55.9758V44.9032Z" fill="#FFF4C5"/>
<path d="M107.64 45.7459H84.8837V94.4575H107.64V45.7459Z" fill="#FFF4C5"/>
<path d="M107.64 97.861H84.8837V144.927H107.64V97.861Z" fill="#FFF4C5"/>
<path d="M25.076 97.861H0.501465V144.927H25.076V97.861Z" fill="#FFF4C5"/>
<path d="M83.9382 97.861H55.9758V144.927H83.9382V97.861Z" fill="#FFF4C5"/>
<path d="M25.076 145.769H0.501465V188.181H25.076V145.769Z" fill="#FFF4C5"/>
<path d="M107.64 145.769H84.8837V188.181H107.64V145.769Z" fill="#FFF4C5"/>
<path d="M25.076 44.9032V1.69176H26.0205V44.9032H52.5727V0.733154H0.501465V44.9032H25.076Z" fill="#FFF4C5"/>
<path d="M83.9382 145.769H55.9758V188.181H83.9382V145.769Z" fill="#FFF4C5"/>
<path d="M52.5727 145.769H26.0205V188.181H52.5727V145.769Z" fill="#FFF4C5"/>
<path d="M83.9382 45.7459H55.9758V94.4575H83.9382V45.7459Z" fill="#FFF4C5"/>
</svg>
