<svg width="21" height="21" viewBox="0 0 21 21" fill="none" xmlns="http://www.w3.org/2000/svg">
<path d="M18.3417 10.6314L10.8417 3.1314C10.5417 2.8314 10.125 2.64807 9.66669 2.64807H3.83335C2.91669 2.64807 2.16669 3.39807 2.16669 4.31474V10.1481C2.16669 10.6064 2.35002 11.0231 2.65835 11.3314L10.1584 18.8314C10.4584 19.1314 10.875 19.3147 11.3334 19.3147C11.7917 19.3147 12.2084 19.1314 12.5084 18.8231L18.3417 12.9897C18.65 12.6897 18.8334 12.2731 18.8334 11.8147C18.8334 11.3564 18.6417 10.9314 18.3417 10.6314ZM11.3334 17.6564L3.83335 10.1481V4.31474H9.66669V4.3064L17.1667 11.8064L11.3334 17.6564Z" fill="white"/>
<path d="M5.91669 7.64807C6.60704 7.64807 7.16669 7.08843 7.16669 6.39807C7.16669 5.70772 6.60704 5.14807 5.91669 5.14807C5.22633 5.14807 4.66669 5.70772 4.66669 6.39807C4.66669 7.08843 5.22633 7.64807 5.91669 7.64807Z" fill="white"/>
</svg>
