<svg width="76" height="75" viewBox="0 0 76 75" fill="none" xmlns="http://www.w3.org/2000/svg">
<path d="M42.9455 32.4819H9.19569C4.32957 32.4819 0.384766 36.4267 0.384766 41.2929V57.9571C0.384766 62.8232 4.32957 66.768 9.19569 66.768H34.2969L38.6323 73.9571L42.689 66.768H42.9455C47.8117 66.768 51.7565 62.8232 51.7565 57.9571V41.2929C51.7565 36.4267 47.8117 32.4819 42.9455 32.4819Z" fill="white"/>
<path d="M42.9456 32.4819C42.9456 32.4819 43.0156 32.4794 43.1542 32.4829C43.2999 32.488 43.5045 32.4955 43.7716 32.5051C44.0428 32.5298 44.3779 32.5822 44.7746 32.6462C45.1647 32.744 45.6218 32.8423 46.1127 33.0399C47.0915 33.4158 48.2718 34.0484 49.3343 35.1582C49.874 35.7025 50.3559 36.3779 50.7848 37.1424C51.2006 37.9166 51.5105 38.8076 51.6869 39.7758C51.88 40.7495 51.821 41.7928 51.8331 42.8669C51.8351 43.9464 51.8376 45.0759 51.8401 46.2522C51.8442 48.6059 51.8482 51.1486 51.8527 53.8616C51.8527 55.2189 51.8532 56.619 51.8532 58.0589C51.826 59.5114 51.4662 61.0149 50.7006 62.3505C50.3246 63.0218 49.8443 63.6407 49.3015 64.2112C48.7345 64.7541 48.1267 65.2828 47.4165 65.6703C46.719 66.072 45.9635 66.4021 45.1606 66.5937C44.765 66.7141 44.3512 66.7585 43.9399 66.8245C43.5267 66.8567 43.1028 66.885 42.689 66.884L42.7903 66.825C41.5112 69.0955 40.1443 71.5223 38.7392 74.0171L38.6364 74.2L38.528 74.0201C37.1556 71.7476 35.6885 69.3173 34.1886 66.8336L34.2969 66.8951C27.6935 66.8966 20.6219 66.8981 13.328 66.8996C11.9082 66.8981 10.497 66.8961 9.0949 66.8945C7.67261 66.8734 6.26846 66.513 5.0251 65.8644C2.54088 64.553 0.768313 62.0632 0.377209 59.3683L0.301608 58.8653L0.275903 58.3588C0.252215 58.0196 0.255238 57.688 0.256246 57.3569C0.25675 56.6936 0.256749 56.0338 0.257253 55.3771C0.257757 54.0637 0.258264 52.7624 0.259272 51.4752C0.260784 48.9002 0.262294 46.3802 0.263806 43.9207C0.26431 43.3058 0.264817 42.695 0.265321 42.0877C0.259273 41.4839 0.27036 40.8725 0.329832 40.2672C0.467928 39.0606 0.857015 37.9019 1.44367 36.8788C2.61396 34.822 4.57502 33.3433 6.7014 32.7339C6.97053 32.6699 7.23463 32.5863 7.50427 32.5394C7.77542 32.4996 8.04557 32.4593 8.3147 32.4199C8.85903 32.3867 9.39578 32.367 9.92146 32.3771C10.9763 32.3786 12.012 32.3796 13.0271 32.3811C15.0572 32.3842 17.0057 32.3867 18.8654 32.3897C26.2999 32.4073 32.3172 32.4215 36.4843 32.4315C38.5592 32.4421 40.172 32.4507 41.2743 32.4562C41.8166 32.4618 42.2319 32.4663 42.5202 32.4693C42.8019 32.4729 42.9456 32.4819 42.9456 32.4819C42.9456 32.4819 42.8019 32.491 42.5212 32.4955C42.2334 32.4986 41.8176 32.5031 41.2753 32.5086C40.1725 32.5142 38.5602 32.5228 36.4853 32.5333C32.3182 32.5434 26.301 32.5575 18.8664 32.5752C17.0067 32.5777 15.0582 32.5807 13.0281 32.5837C12.0131 32.5853 10.9773 32.5863 9.92246 32.5878C9.65887 32.5893 9.39427 32.5908 9.12816 32.5923C8.86558 32.6059 8.60148 32.6195 8.33638 32.6331C8.07379 32.6724 7.8102 32.7123 7.5456 32.7516C7.28201 32.7979 7.02497 32.8801 6.76238 32.9431C4.68943 33.5418 2.78078 34.9878 1.64426 36.9932C1.07424 37.9906 0.69775 39.1196 0.564694 40.2944C0.508246 40.8811 0.497664 41.4778 0.504216 42.0877C0.50472 42.6945 0.505223 43.3058 0.505727 43.9207C0.507239 46.3802 0.508753 48.9002 0.510265 51.4752C0.510769 52.7624 0.511272 54.0632 0.511776 55.3771C0.51228 56.0338 0.512279 56.6941 0.512783 57.3569C0.511775 57.6885 0.509256 58.0216 0.532944 58.3477L0.557638 58.8401L0.631727 59.3285C1.01275 61.9448 2.73542 64.3614 5.14757 65.634C6.35515 66.263 7.71696 66.6123 9.09842 66.633C10.4995 66.6345 11.9097 66.636 13.3285 66.638C20.6219 66.6395 27.694 66.641 34.2974 66.6425H34.369L34.4058 66.704C35.9032 69.1898 37.3678 71.6211 38.7377 73.8951L38.526 73.8981C39.9347 71.4053 41.305 68.9811 42.5877 66.7121L42.6215 66.6526L42.6895 66.6531C43.1063 66.6546 43.5095 66.6274 43.9152 66.5972C44.3159 66.5332 44.7191 66.4913 45.1047 66.3744C45.8874 66.19 46.6237 65.8689 47.3046 65.4788C47.9982 65.1028 48.5914 64.5877 49.1458 64.0595C49.676 63.5036 50.1462 62.9014 50.5146 62.2467C51.2651 60.9448 51.6194 59.4787 51.6501 58.0589C51.6537 56.6195 51.6577 55.2199 51.6612 53.8636C51.6658 51.1506 51.6698 48.6079 51.6738 46.2542C51.6763 45.0779 51.6789 43.9484 51.6809 42.8689C51.6738 41.7888 51.7363 40.7551 51.5514 39.801C51.3825 38.8469 51.0826 37.967 50.6769 37.2014C50.2586 36.4449 49.7879 35.7751 49.2581 35.2333C48.2159 34.129 47.0537 33.493 46.0875 33.1089C45.6026 32.9073 45.1506 32.8045 44.764 32.7017C44.3709 32.6321 44.0377 32.5742 43.7686 32.5434C43.5025 32.5258 43.2989 32.5127 43.1542 32.5031C43.0156 32.4915 42.9456 32.4819 42.9456 32.4819Z" fill="#263238"/>
<path d="M44.6955 41.5353C44.6955 41.6079 36.3487 41.6663 26.0555 41.6663C15.7583 41.6663 7.41357 41.6074 7.41357 41.5353C7.41357 41.4632 15.7583 41.4042 26.0555 41.4042C36.3492 41.4037 44.6955 41.4627 44.6955 41.5353Z" fill="#263238"/>
<path d="M44.6955 45.5799C44.6955 45.6525 36.3487 45.7109 26.0555 45.7109C15.7583 45.7109 7.41357 45.652 7.41357 45.5799C7.41357 45.5078 15.7583 45.4489 26.0555 45.4489C36.3492 45.4489 44.6955 45.5073 44.6955 45.5799Z" fill="#263238"/>
<path d="M44.6955 49.625C44.6955 49.6976 36.3487 49.756 26.0555 49.756C15.7583 49.756 7.41357 49.6971 7.41357 49.625C7.41357 49.5529 15.7583 49.494 26.0555 49.494C36.3492 49.4935 44.6955 49.5524 44.6955 49.625Z" fill="#263238"/>
<path d="M44.6955 53.6696C44.6955 53.7422 36.3487 53.8007 26.0555 53.8007C15.7583 53.8007 7.41357 53.7417 7.41357 53.6696C7.41357 53.5975 15.7583 53.5386 26.0555 53.5386C36.3492 53.5386 44.6955 53.5975 44.6955 53.6696Z" fill="#263238"/>
<path d="M44.6955 57.7147C44.6955 57.7872 36.3487 57.8457 26.0555 57.8457C15.7583 57.8457 7.41357 57.7867 7.41357 57.7147C7.41357 57.6421 15.7583 57.5836 26.0555 57.5836C36.3492 57.5836 44.6955 57.6421 44.6955 57.7147Z" fill="#263238"/>
<path d="M69.2443 0.32019H31.155C27.4869 0.32019 24.5138 3.29379 24.5138 6.9614V20.3572C24.5138 24.0253 27.4874 26.9984 31.155 26.9984H58.4259L62.7613 34.1875L66.818 26.9984H69.2438C72.9119 26.9984 75.885 24.0248 75.885 20.3572V6.9614C75.886 3.29379 72.9124 0.32019 69.2443 0.32019Z" fill="white"/>
<path d="M69.2443 0.320195C69.2443 0.320195 69.4721 0.319693 69.9156 0.336829C70.3521 0.397309 71.0178 0.46686 71.8167 0.801516C72.6145 1.12105 73.5373 1.70821 74.3619 2.65472C74.7605 3.13705 75.133 3.70506 75.4213 4.3658C75.6985 5.03008 75.8855 5.78255 75.9323 6.58945C75.9792 9.80044 75.9611 13.6913 75.9772 18.1663C75.9782 18.7258 75.9792 19.2938 75.9802 19.8709C75.9888 20.4434 75.9671 21.0472 75.8578 21.6389C75.6239 22.8188 75.074 23.9865 74.2011 24.9189C73.7722 25.3897 73.2717 25.81 72.7062 26.1401C72.1473 26.4783 71.5314 26.7454 70.8782 26.8986C70.5567 26.9959 70.218 27.0256 69.8833 27.075C69.5447 27.0927 69.2024 27.1149 68.8668 27.1083C68.1914 27.1088 67.509 27.1098 66.819 27.1103L66.9163 27.0534C65.6336 29.3309 64.2738 31.7466 62.8667 34.2459L62.7664 34.4244L62.6605 34.249C61.2861 31.9734 59.823 29.5507 58.3201 27.0629L58.4269 27.1234C51.2343 27.1254 43.4092 27.1275 35.2883 27.1295C33.9683 27.1295 32.6559 27.1295 31.3525 27.1295C30.0336 27.1521 28.6944 26.8099 27.5887 26.1053C26.4738 25.4184 25.5747 24.4008 25.0324 23.2315C24.4462 22.0738 24.3479 20.7322 24.3863 19.5045C24.3873 17.0152 24.3883 14.5698 24.3893 12.1748C24.3898 10.9773 24.3908 9.79237 24.3913 8.62108C24.3933 8.03492 24.3948 7.4523 24.3968 6.8727C24.417 6.28453 24.481 5.69737 24.6493 5.13844C24.9482 4.00948 25.5822 3.00501 26.367 2.19155C27.1759 1.39825 28.1612 0.802526 29.2191 0.489542C29.7503 0.345902 30.2901 0.231995 30.8339 0.221915C31.3777 0.190163 31.9004 0.213851 32.4281 0.207299C33.4794 0.208307 34.5136 0.209317 35.5307 0.210829C39.5985 0.216373 43.3881 0.221916 46.8485 0.226956C53.7629 0.244596 59.3593 0.258708 63.2366 0.268788C65.1659 0.279372 66.6653 0.287942 67.6919 0.293486C68.1959 0.29903 68.582 0.303562 68.8506 0.306586C69.1107 0.311122 69.2443 0.320195 69.2443 0.320195C69.2443 0.320195 69.1107 0.329267 68.8496 0.333803C68.581 0.336827 68.1949 0.341363 67.6909 0.346907C66.6643 0.352451 65.1649 0.361021 63.2356 0.371605C59.3583 0.381685 53.7619 0.395797 46.8475 0.413437C43.3871 0.418477 39.5975 0.423516 35.5297 0.429564C34.5126 0.430572 33.4779 0.431582 32.4271 0.433094C31.3727 0.43511 30.3078 0.390755 29.2846 0.711803C28.264 1.01622 27.314 1.5933 26.5343 2.35989C25.7788 3.14663 25.168 4.11632 24.8822 5.20496C24.5576 6.28554 24.6509 7.44827 24.6378 8.62208C24.6383 9.79338 24.6393 10.9783 24.6398 12.1758C24.6408 14.5708 24.6418 17.0162 24.6428 19.5055C24.6468 20.1309 24.6226 20.7513 24.728 21.3561C24.8126 21.966 25.0006 22.5622 25.2662 23.1222C25.7884 24.2466 26.6532 25.2248 27.7258 25.8846C28.7927 26.5615 30.0678 26.8896 31.352 26.8684C32.6559 26.8684 33.9678 26.8684 35.2878 26.8684C43.4087 26.8704 51.2338 26.8724 58.4264 26.8744H58.497L58.5333 26.9349C60.0327 29.4247 61.4927 31.8494 62.8641 34.1265L62.658 34.1295C64.0697 31.6327 65.4345 29.2196 66.7207 26.9445L66.753 26.8875H66.8185C67.5085 26.8881 68.1914 26.8891 68.8663 26.8896C69.2065 26.8971 69.5346 26.8755 69.8627 26.8593C70.1867 26.8119 70.5149 26.7847 70.8258 26.691C71.4588 26.5448 72.0556 26.2873 72.5979 25.9607C73.1467 25.6432 73.6331 25.2364 74.0504 24.7808C74.9002 23.8787 75.4364 22.7477 75.6672 21.6026C75.7751 21.024 75.7983 20.452 75.7917 19.8709C75.7927 19.2938 75.7938 18.7253 75.7948 18.1663C75.7943 13.6943 75.83 9.79338 75.8023 6.59651C75.761 5.80422 75.5826 5.06485 75.3149 4.41016C75.0362 3.75899 74.6744 3.19753 74.2853 2.71924C73.4809 1.78028 72.5762 1.1906 71.7905 0.864516C70.1943 0.223932 69.2312 0.372611 69.2443 0.320195Z" fill="#263238"/>
<path d="M69.9095 9.71075C69.9095 9.78333 61.5628 9.84179 51.2691 9.84179C40.9719 9.84179 32.6271 9.78282 32.6271 9.71075C32.6271 9.63818 40.9719 9.57971 51.2691 9.57971C61.5633 9.57971 69.9095 9.63818 69.9095 9.71075Z" fill="#263238"/>
<path d="M69.9095 13.7553C69.9095 13.8279 61.5628 13.8863 51.2691 13.8863C40.9719 13.8863 32.6271 13.8279 32.6271 13.7553C32.6271 13.6827 40.9719 13.6243 51.2691 13.6243C61.5633 13.6243 69.9095 13.6832 69.9095 13.7553Z" fill="#263238"/>
<path d="M69.9095 17.8004C69.9095 17.873 61.5628 17.9315 51.2691 17.9315C40.9719 17.9315 32.6271 17.8725 32.6271 17.8004C32.6271 17.7283 40.9719 17.6694 51.2691 17.6694C61.5633 17.6694 69.9095 17.7278 69.9095 17.8004Z" fill="#263238"/>
</svg>
