<svg width="49" height="91" viewBox="0 0 49 91" fill="none" xmlns="http://www.w3.org/2000/svg">
<path d="M18.3482 49.7226L20.5214 46.0232C19.7372 43.7134 19.5608 41.1651 20.145 38.6124C21.8233 31.2716 29.1348 26.6817 36.4756 28.36C43.8163 30.0383 48.4063 37.3499 46.7279 44.6906C45.0496 52.0309 37.7381 56.6213 30.3973 54.943C27.332 54.2419 24.7495 52.5571 22.8998 50.2996L22.9028 50.3067L18.3482 49.7226Z" fill="white"/>
<path d="M18.3482 49.7225C18.3482 49.7225 18.4379 49.7397 18.6289 49.7679C18.8346 49.7976 19.1193 49.8385 19.4888 49.8914C20.274 50.0008 21.4145 50.159 22.8948 50.3651C22.927 50.3697 22.9568 50.347 22.9613 50.3148C22.9628 50.3032 22.9608 50.2911 22.9563 50.2815C22.9563 50.2815 22.9543 50.277 22.9533 50.2744L22.853 50.3369C23.9713 51.7139 25.7288 53.3267 28.273 54.3679C29.534 54.8976 30.988 55.2414 32.554 55.3467C34.1179 55.4535 35.8032 55.2968 37.4775 54.7827C39.1498 54.2722 40.8075 53.4048 42.2706 52.18C43.7337 50.9589 44.9977 49.3773 45.8767 47.5317C47.6538 43.8636 47.7163 39.0614 45.54 35.1116C44.4559 33.1183 42.9187 31.4107 41.0897 30.2188C39.2753 29.0081 37.222 28.2663 35.1743 27.9981C33.122 27.7335 31.0843 27.9669 29.2527 28.5581C27.4177 29.1498 25.7877 30.1038 24.4557 31.259C21.7779 33.585 20.342 36.6407 19.9106 39.3331C19.4535 42.0491 19.891 44.3877 20.4665 46.0413L20.4715 45.9935C19.7785 47.2036 19.2438 48.138 18.8754 48.7821C18.704 49.085 18.5715 49.3193 18.4752 49.4887C18.3865 49.6464 18.3482 49.7225 18.3482 49.7225C18.3482 49.7225 18.4047 49.6374 18.5029 49.4771C18.6063 49.3073 18.7489 49.0724 18.9338 48.769C19.3118 48.1415 19.8607 47.2313 20.5714 46.0519C20.5804 46.0373 20.5814 46.0192 20.5764 46.004C20.0275 44.3565 19.6183 42.0406 20.088 39.3633C20.5325 36.7083 21.9644 33.709 24.6059 31.4324C25.9198 30.3014 27.525 29.3695 29.3288 28.7939C31.1291 28.2189 33.1285 27.9946 35.1415 28.2577C37.1504 28.5248 39.1624 29.2551 40.94 30.443C42.7317 31.6128 44.2372 33.2876 45.3001 35.2416C47.433 39.1134 47.3761 43.8172 45.6398 47.4198C44.7815 49.2311 43.5447 50.7855 42.1113 51.989C40.6784 53.1961 39.0525 54.0534 37.41 54.562C35.7659 55.074 34.1083 55.2358 32.5675 55.1385C31.0253 55.0433 29.5889 54.7137 28.3415 54.1991C25.8245 53.1896 24.0716 51.612 22.9452 50.2613C22.9245 50.2356 22.8872 50.2321 22.8615 50.2523C22.8404 50.2694 22.8343 50.2996 22.8449 50.3233C22.8459 50.3258 22.8479 50.3304 22.8479 50.3304L22.9094 50.2467C21.4433 50.0748 20.3133 49.9423 19.5356 49.8516C19.1576 49.8087 18.8658 49.776 18.6556 49.7523C18.4571 49.7306 18.3482 49.7225 18.3482 49.7225Z" fill="#263238"/>
<path d="M28.8868 38.8598H30.9608C30.9608 38.8598 30.9608 37.1185 32.7702 37.0873C33.7101 37.0711 34.197 37.6865 34.3951 38.1583C34.6249 38.7061 34.5553 39.3301 34.2474 39.8381C33.8956 40.4182 33.125 40.9454 31.7274 40.6989V45.3745H33.7782V42.6358C33.7782 42.6358 36.654 41.8924 36.654 38.7227C36.654 35.6902 33.9344 34.9861 32.7707 34.9861C31.8806 34.9861 28.848 35.2013 28.8868 38.8598Z" fill="#263238"/>
<path d="M33.8029 46.3382H31.7219V48.2816H33.8029V46.3382Z" fill="#263238"/>
<path d="M47.8615 76.0177C46.4548 69.0126 39.4618 64.9665 32.8876 66.8595C26.45 68.7133 22.7527 75.7567 24.8917 82.105C25.6084 84.2324 26.8684 86.0221 28.464 87.3754C28.522 87.4248 28.5805 87.4686 28.6435 87.5115C28.6485 87.515 28.654 87.5185 28.6596 87.5225C31.4487 89.4261 34.8371 90.3515 38.1852 89.9155C39.3071 89.7694 40.3862 89.4861 41.3332 89.0355C46.1882 86.7272 48.9199 81.2886 47.8615 76.0177Z" fill="white"/>
<path d="M47.8615 76.0177C47.866 76.0167 47.8801 76.0802 47.9043 76.2057C47.929 76.3443 47.9623 76.5288 48.0046 76.7631C48.0842 77.2545 48.1462 77.9899 48.12 78.9374C48.0641 79.8819 47.8993 81.0426 47.4502 82.3162C46.9991 83.5822 46.2834 84.9763 45.1555 86.2535C44.5965 86.8945 43.9358 87.4988 43.1889 88.0522C42.4238 88.5754 41.5982 89.091 40.6522 89.4402C38.7653 90.1252 36.5688 90.3192 34.3467 89.9599C33.2374 89.7719 32.1205 89.4523 31.041 88.9791C30.4997 88.7472 29.9679 88.4776 29.4503 88.1717C29.1893 88.023 28.9358 87.8582 28.6822 87.6914C28.4202 87.524 28.1893 87.3098 27.9671 87.1052C26.1678 85.442 24.8251 83.1297 24.367 80.5618C24.1039 79.2846 24.1084 77.9773 24.2843 76.7253C24.3499 76.0933 24.5268 75.4865 24.681 74.8827C24.7848 74.5884 24.8881 74.2955 24.9909 74.0037C25.0867 73.7089 25.2414 73.4397 25.3634 73.1585C25.8966 72.0568 26.5599 71.0326 27.3723 70.1748L27.6662 69.8457L27.9887 69.5479C28.2065 69.3538 28.4091 69.1437 28.6359 68.9662C29.098 68.62 29.5426 68.2607 30.039 67.9895C31.9648 66.8016 34.1305 66.3102 36.1253 66.3011C36.6268 66.2709 37.1157 66.3495 37.597 66.3843C38.0773 66.4316 38.5385 66.5541 38.9956 66.6327C39.4391 66.7688 39.8806 66.8847 40.2979 67.0379C40.7047 67.2179 41.121 67.3555 41.4939 67.5601C43.0155 68.3241 44.2185 69.3236 45.1142 70.3301C45.5345 70.8567 45.9427 71.3361 46.2295 71.8391C46.5576 72.3158 46.7763 72.7972 46.984 73.223C47.0959 73.4322 47.179 73.6398 47.2451 73.8394C47.3161 74.0365 47.3832 74.2209 47.4452 74.3928C47.5827 74.731 47.6377 75.0364 47.6987 75.2778C47.7526 75.5097 47.7949 75.6921 47.8267 75.8292C47.8544 75.9527 47.866 76.0167 47.8615 76.0177C47.8569 76.0187 47.8363 75.9562 47.8005 75.8338C47.7627 75.6987 47.7118 75.5193 47.6478 75.2904C47.5787 75.0526 47.5167 74.7512 47.3721 74.4175C47.3066 74.2482 47.2365 74.0662 47.1619 73.8722C47.0929 73.6751 47.0067 73.471 46.8923 73.2654C46.6791 72.8465 46.4563 72.3733 46.1252 71.9061C45.8359 71.4122 45.4256 70.9429 45.0058 70.4273C44.1107 69.4425 42.9157 68.4673 41.4128 67.7259C41.0444 67.5268 40.6336 67.3948 40.2324 67.2199C39.8206 67.0722 39.3857 66.9608 38.9492 66.8293C38.4992 66.7547 38.0455 66.6368 37.5733 66.5929C37.1 66.5617 36.6197 66.4861 36.1278 66.5188C34.1698 66.5375 32.0474 67.0274 30.1655 68.1966C29.6797 68.4627 29.2452 68.8166 28.7936 69.1568C28.5714 69.3312 28.3738 69.5378 28.1611 69.7283L27.8461 70.0206L27.5593 70.3442C26.765 71.1854 26.1179 72.1903 25.5967 73.2699C25.4783 73.5456 25.3261 73.8092 25.2329 74.098C25.1326 74.3837 25.0318 74.6705 24.9305 74.9588C24.7808 75.55 24.6074 76.1437 24.5439 76.7621C24.373 77.9873 24.3685 79.265 24.626 80.5134C25.0731 83.0238 26.385 85.2873 28.1435 86.9167C28.3667 87.1223 28.5809 87.3224 28.8264 87.4797C29.0749 87.644 29.3233 87.8058 29.5799 87.9529C30.0879 88.2543 30.61 88.521 31.1418 88.7498C32.2017 89.217 33.2979 89.5335 34.387 89.7215C36.5668 90.0818 38.73 89.8979 40.5776 89.2361C41.499 88.9015 42.3175 88.397 43.0714 87.8879C43.8083 87.3486 44.462 86.7585 45.0169 86.131C46.1368 84.8816 46.854 83.5127 47.3126 82.2673C47.7697 81.0139 47.9476 79.8678 48.0187 78.9323C48.0605 77.9934 48.0157 77.2616 47.9532 76.7707C47.9219 76.5353 47.8972 76.3498 47.8791 76.2112C47.863 76.0837 47.8569 76.0182 47.8615 76.0177Z" fill="#263238"/>
<path d="M32.2793 76.1714H34.0901C34.0901 76.1714 34.0901 74.6508 35.6702 74.6236C36.4907 74.6095 36.9161 75.1473 37.0889 75.5591C37.2895 76.0373 37.2291 76.5822 36.9599 77.0257C36.653 77.5322 35.9796 77.9924 34.7594 77.7772V81.8601H36.5502V79.4681C36.5502 79.4681 39.0616 78.8189 39.0616 76.0515C39.0616 73.4035 36.6867 72.7886 35.6702 72.7886C34.893 72.7891 32.245 72.9771 32.2793 76.1714Z" fill="#263238"/>
<path d="M36.5723 82.7018H34.7549V84.3992H36.5723V82.7018Z" fill="#263238"/>
<path d="M22.1554 78.2081C22.1554 79.5396 21.0759 80.6187 19.7448 80.6187C18.4132 80.6187 17.3342 79.5391 17.3342 78.2081C17.3342 76.8765 18.4137 75.7974 19.7448 75.7974C21.0759 75.7974 22.1554 76.8765 22.1554 78.2081Z" fill="white"/>
<path d="M22.1554 78.2081C22.1297 78.2091 22.1332 77.9934 22.0304 77.632C21.9291 77.2772 21.6827 76.7606 21.1469 76.366C20.6293 75.9698 19.7816 75.7511 18.9646 76.058C18.1542 76.3397 17.4561 77.2021 17.4652 78.2081C17.4561 79.2146 18.1542 80.0774 18.9646 80.3591C19.7821 80.6661 20.6293 80.4474 21.1469 80.0512C21.6827 79.6561 21.9286 79.1395 22.0304 78.7851C22.1332 78.4228 22.1297 78.2071 22.1554 78.2081C22.1645 78.2081 22.1705 78.261 22.1741 78.3633C22.1796 78.4656 22.1695 78.6178 22.1297 78.8088C22.0546 79.1858 21.8228 79.7513 21.2598 80.1979C20.716 80.6449 19.7922 80.912 18.8824 80.5859C17.9808 80.2891 17.192 79.331 17.2031 78.2076C17.1925 77.0847 17.9813 76.1271 18.8824 75.8302C19.7922 75.5041 20.716 75.7707 21.2598 76.2183C21.8228 76.6648 22.0546 77.2298 22.1297 77.6073C22.1695 77.7988 22.1796 77.951 22.1741 78.0533C22.1705 78.1551 22.1645 78.2081 22.1554 78.2081Z" fill="#263238"/>
<path d="M25.5004 10.3279C24.0504 3.10554 16.8402 -1.06606 10.0619 0.88593C3.42471 2.7971 -0.387539 10.0587 1.81797 16.6047C2.55683 18.7976 3.85615 20.6432 5.5012 22.0388C5.56118 22.0897 5.62114 22.1351 5.68616 22.1794C5.6917 22.183 5.69726 22.187 5.7028 22.191C8.57812 24.1536 12.0718 25.1077 15.5237 24.6581C16.6804 24.5074 17.7927 24.2151 18.7695 23.7509C23.7752 21.37 26.5916 15.7625 25.5004 10.3279Z" fill="white"/>
<path d="M25.5004 10.3279C25.505 10.3269 25.5196 10.3924 25.5443 10.5214C25.5695 10.6635 25.6038 10.8536 25.6471 11.096C25.7288 11.6025 25.7928 12.3605 25.765 13.3378C25.7071 14.3115 25.5372 15.5075 25.0736 16.8204C24.6079 18.1253 23.8705 19.5622 22.7078 20.8786C22.1317 21.5394 21.4503 22.1623 20.6807 22.7323C19.8919 23.2716 19.0407 23.8028 18.0659 24.1627C16.121 24.8688 13.857 25.0684 11.5664 24.6979C10.4228 24.5039 9.27164 24.1743 8.15931 23.6869C7.60138 23.448 7.05304 23.1698 6.51981 22.8548C6.25067 22.7016 5.98959 22.5317 5.72801 22.3599C5.45837 22.1875 5.22048 21.9668 4.99116 21.7556C3.13644 20.0415 1.75246 17.6581 1.28072 15.0116C1.00956 13.6951 1.01462 12.3479 1.19555 11.0577C1.26309 10.4065 1.44552 9.78104 1.60428 9.1586C1.71113 8.85519 1.81748 8.5533 1.92382 8.25241C2.0226 7.9485 2.18237 7.6713 2.30786 7.3815C2.85773 6.24599 3.54116 5.1901 4.3788 4.30659L4.68172 3.9669L5.01385 3.65997C5.23813 3.45988 5.44679 3.24366 5.68115 3.0602C6.15743 2.70337 6.61556 2.33293 7.12763 2.05371C9.11238 0.829495 11.3446 0.322474 13.4009 0.312898C13.9175 0.28165 14.4215 0.362293 14.918 0.398077C15.4134 0.446965 15.8881 0.572963 16.3594 0.654107C16.8165 0.794219 17.2716 0.914172 17.702 1.07142C18.1214 1.25689 18.5503 1.39852 18.9348 1.60919C20.5033 2.39644 21.7436 3.42711 22.667 4.46434C23.1004 5.00715 23.5212 5.50107 23.8171 6.01969C24.1553 6.51109 24.3806 7.00703 24.5953 7.44601C24.7107 7.66172 24.7963 7.87542 24.8644 8.08155C24.938 8.28416 25.0065 8.47468 25.071 8.65208C25.2132 9.00085 25.2696 9.31535 25.3326 9.56432C25.3886 9.80423 25.4324 9.99222 25.4647 10.1328C25.4924 10.2614 25.5045 10.3274 25.5004 10.3279C25.4959 10.3289 25.4747 10.2644 25.4379 10.1384C25.3991 9.99977 25.3472 9.8143 25.2807 9.57793C25.2096 9.33248 25.1456 9.02151 24.9964 8.67779C24.9289 8.5029 24.8568 8.31541 24.7797 8.11532C24.7081 7.91221 24.6199 7.70154 24.5015 7.48935C24.2818 7.05742 24.0519 6.56955 23.7107 6.08723C23.4124 5.57768 22.9895 5.09384 22.5566 4.56212C21.6338 3.54656 20.402 2.54058 18.8517 1.77551C18.4717 1.57038 18.0483 1.4338 17.6345 1.25387C17.2101 1.10116 16.7616 0.986242 16.311 0.850666C15.8468 0.774058 15.3791 0.652094 14.8923 0.606734C14.4044 0.574478 13.9089 0.496353 13.4014 0.530121C11.3819 0.549273 9.19353 1.05428 7.25212 2.26035C6.75114 2.53503 6.30308 2.89993 5.83739 3.25021C5.60857 3.43014 5.40445 3.64283 5.18521 3.83939L4.86013 4.14078L4.56428 4.47443C3.74528 5.34181 3.07749 6.37854 2.54022 7.49137C2.41775 7.77562 2.261 8.04728 2.16524 8.34514C2.06141 8.63998 1.9576 8.93584 1.85327 9.2332C1.69854 9.84304 1.52012 10.4554 1.4546 11.093C1.2782 12.3565 1.27366 13.6744 1.53927 14.9622C2.00043 17.5517 3.35367 19.8857 5.16706 21.5666C5.39739 21.7788 5.61814 21.9849 5.87166 22.1472C6.12819 22.3165 6.38422 22.4839 6.64882 22.6351C7.17248 22.946 7.71126 23.2207 8.25961 23.4566C9.35279 23.9384 10.4833 24.265 11.6067 24.459C13.8545 24.8305 16.0857 24.6405 17.9908 23.9581C18.9409 23.6128 19.7851 23.0927 20.5623 22.5675C21.3218 22.0111 21.9961 21.4028 22.5682 20.7556C23.7228 19.4669 24.4622 18.0552 24.9355 16.7705C25.4067 15.4778 25.5897 14.2964 25.6627 13.3317C25.7056 12.3635 25.6587 11.6091 25.5942 11.1025C25.5619 10.8591 25.5362 10.6681 25.5176 10.5254C25.502 10.3964 25.4959 10.3289 25.5004 10.3279Z" fill="#263238"/>
<path d="M9.43497 10.4871H11.3018C11.3018 10.4871 11.3018 8.91969 12.9307 8.89147C13.7769 8.87685 14.2154 9.43125 14.3938 9.85562C14.601 10.3485 14.538 10.9105 14.2608 11.3676C13.9442 11.8898 13.2502 12.3645 11.9918 12.1428V16.3527H13.8379V13.8866C13.8379 13.8866 16.427 13.2173 16.427 10.3637C16.427 7.63348 13.9785 6.99945 12.9307 6.99945C12.1299 6.99945 9.39969 7.19299 9.43497 10.4871Z" fill="#263238"/>
<path d="M13.8606 17.2195H11.9872V18.9694H13.8606V17.2195Z" fill="#263238"/>
<path d="M5.24472 26.8616C5.24472 28.2345 4.13188 29.3473 2.75899 29.3473C1.38609 29.3473 0.273254 28.2345 0.273254 26.8616C0.273254 25.4887 1.38609 24.3759 2.75899 24.3759C4.13188 24.3759 5.24472 25.4887 5.24472 26.8616Z" fill="white"/>
<path d="M5.2447 26.8616C5.219 26.8626 5.22302 26.6403 5.11718 26.2674C5.01285 25.901 4.75935 25.3677 4.20646 24.96C3.67222 24.5508 2.79728 24.3245 1.95358 24.641C1.11644 24.9318 0.395214 25.8223 0.40479 26.8616C0.395214 27.9008 1.11644 28.7919 1.95358 29.0827C2.79778 29.3992 3.67271 29.1729 4.20695 28.7637C4.75934 28.356 5.01336 27.8222 5.11769 27.4563C5.22302 27.0829 5.219 26.8606 5.2447 26.8616C5.25377 26.8616 5.25981 26.916 5.26283 27.0219C5.26787 27.1272 5.2578 27.284 5.21648 27.481C5.13886 27.8696 4.89946 28.4512 4.31936 28.9114C3.75941 29.3715 2.80785 29.6462 1.87142 29.31C0.943553 29.0041 0.131109 28.0183 0.142701 26.8616C0.132117 25.7054 0.943553 24.7196 1.87142 24.4137C2.80785 24.0775 3.75941 24.3522 4.31936 24.8123C4.89946 25.272 5.13886 25.8541 5.21648 26.2427C5.2578 26.4397 5.26838 26.5965 5.26283 26.7018C5.25981 26.8072 5.25377 26.8616 5.2447 26.8616Z" fill="#263238"/>
</svg>
