<svg width="21" height="21" viewBox="0 0 21 21" fill="none" xmlns="http://www.w3.org/2000/svg">
<path d="M10.5 2.16663C5.90502 2.16663 2.16669 5.90496 2.16669 10.5C2.16669 15.095 5.90502 18.8333 10.5 18.8333C15.095 18.8333 18.8334 15.095 18.8334 10.5C18.8334 5.90496 15.095 2.16663 10.5 2.16663ZM10.5 17.1666C6.82419 17.1666 3.83335 14.1758 3.83335 10.5C3.83335 6.82413 6.82419 3.83329 10.5 3.83329C14.1759 3.83329 17.1667 6.82413 17.1667 10.5C17.1667 14.1758 14.1759 17.1666 10.5 17.1666Z" fill="white"/>
<path d="M11.3334 6.33337H9.66669V10.845L12.4109 13.5892L13.5892 12.4109L11.3334 10.155V6.33337Z" fill="white"/>
</svg>
