<svg width="121" height="124" viewBox="0 0 121 124" fill="none" xmlns="http://www.w3.org/2000/svg">
<path d="M74.5606 36.0714C74.0798 35.4999 73.4533 34.9828 73.3011 34.2515C73.155 33.5484 73.4906 32.8478 73.6413 32.1463C74.0622 30.1908 72.8364 28.017 70.9454 27.3658C69.8583 26.9914 68.4627 26.9596 67.9103 25.9511C67.3675 24.9607 68.056 23.7869 68.4602 22.7321C69.13 20.9842 68.9526 18.9455 68.0288 17.3201C67.8982 16.9471 67.7445 16.5838 67.5666 16.233C66.1433 13.4302 63.2498 11.5674 60.2843 11.5453C59.8388 9.24602 57.9311 7.46993 55.7927 7.00625C55.7932 6.18977 55.6208 5.36876 55.2498 4.64753C54.1849 2.5776 51.9245 1.32062 49.6267 0.949681C46.3003 0.412921 42.7436 1.59178 40.3965 4.00846C39.1279 5.31432 38.1002 7.01835 36.3806 7.6171C34.8691 8.14327 33.1968 7.668 31.6092 7.87414C29.4813 8.14982 27.6579 9.66233 26.5667 11.51C25.4756 13.3572 25.026 15.5118 24.7735 17.6427C24.5421 19.5982 24.3894 21.7442 23.0327 23.1715C21.7097 24.5631 19.6196 24.8579 17.9745 25.8478C14.879 27.7106 13.876 32.3247 15.9182 35.3048C16.5694 36.2549 17.5043 37.1258 17.5799 38.2754C17.6489 39.3247 16.9705 40.2592 16.653 41.2616C15.835 43.8426 17.9483 46.9094 20.6513 47.0647C22.0161 47.1428 23.4782 46.6111 24.7014 47.2209C25.9165 47.8272 26.3686 49.2924 27.1458 50.4057C28.6749 52.5961 31.8728 53.4216 34.2708 52.2458C35.2748 51.7534 36.2228 50.9409 37.3382 51.016C38.4515 51.0911 39.3275 52.0417 40.4232 52.2534C41.8571 52.5306 43.2189 51.4747 44.0716 50.2888C44.9239 49.1029 45.5181 47.7058 46.6098 46.7351C48.0386 45.464 50.0466 45.15 51.8544 44.5275C54.4485 43.6345 56.7553 41.9753 58.4926 39.8539L58.3157 49.9239C59.8095 49.9239 60.6825 49.4012 61.2389 48.6291C61.5509 48.8362 61.882 49.0141 62.2393 49.1326C64.0023 49.7152 66.1025 49.0575 67.2183 47.5732C67.8005 46.7991 68.1613 45.8072 68.9859 45.2997C69.7051 44.8571 70.6057 44.8919 71.4368 44.7407C73.2628 44.4091 74.867 43.0513 75.4955 41.3055C76.125 39.5601 75.7556 37.4912 74.5606 36.0714Z" fill="#263238"/>
<path d="M40.7477 12.5382C38.6612 13.8531 33.9241 19.6421 33.8314 21.3476L34.3182 55.988C34.2406 58.5912 33.7956 60.8315 35.3177 62.9447C39.5402 67.9908 49.3127 68.6092 51.547 64.4537C51.7188 64.1342 51.8443 63.8534 51.9048 63.6176C51.9764 63.2769 52.0746 63.0541 52.1009 62.7633C52.7067 59.8305 52.6099 57.0051 52.6099 57.0051C52.9012 53.6187 53.0035 52.2292 53.0035 52.2609C53.0035 52.2609 60.2399 51.6042 62.4132 42.3876C63.4938 37.8037 63.8254 30.1812 63.8944 23.9356C63.906 22.8818 63.6359 21.6555 63.1516 20.3598C60.4652 13.1717 54.2892 9.68252 46.8633 10.3206C45.0035 10.4803 42.1569 11.313 40.7477 12.5382Z" fill="#FFBF9D"/>
<path d="M53.2444 36.963C53.2439 36.8895 54.0544 36.8108 55.3627 36.7408C55.6939 36.7312 56.0099 36.6889 56.082 36.4686C56.1772 36.2368 56.0658 35.8724 55.9348 35.4783C55.6848 34.6598 55.4232 33.802 55.1486 32.9033C54.0634 29.2398 53.3034 26.2369 53.4511 26.1951C53.5992 26.1528 54.5992 29.0875 55.6843 32.7511C55.9439 33.6538 56.1928 34.5146 56.4287 35.3382C56.5255 35.7207 56.7079 36.1607 56.5038 36.6405C56.397 36.8799 56.1424 37.0397 55.9277 37.081C55.712 37.1294 55.5271 37.1193 55.3638 37.1168C54.0539 37.0911 53.2439 37.0366 53.2444 36.963Z" fill="#263238"/>
<path d="M53.0035 52.2609C53.0035 52.2609 46.699 52.2 40.7598 48.0021C40.7598 48.0021 43.4215 54.6917 52.8211 54.5113L53.0035 52.2609Z" fill="#FF9A6C"/>
<path d="M52.4698 40.0248C52.0525 39.3782 51.2662 38.982 50.4548 39.0093C49.8918 39.0279 49.3072 39.2552 48.9342 39.6851C48.5613 40.1145 48.4418 40.7551 48.7185 41.2117C49.0295 41.7258 49.7472 41.8926 50.3742 41.7636C51.0016 41.6346 51.5601 41.2697 52.0923 40.9038C52.2395 40.8025 52.3902 40.6966 52.4879 40.55C52.5862 40.4038 52.6195 40.2052 52.5217 40.0712" fill="#FF9A6C"/>
<path d="M49.3904 37.5724C49.6005 37.5759 49.4992 38.973 50.6221 40.0536C51.7415 41.1372 53.2429 41.0908 53.2394 41.2869C53.2525 41.3761 52.8876 41.5338 52.2576 41.5041C51.6392 41.4794 50.7537 41.2148 50.0672 40.5535C49.3828 39.8913 49.1293 39.0567 49.1242 38.4801C49.1142 37.8919 49.2956 37.5573 49.3904 37.5724Z" fill="#263238"/>
<path d="M49.156 23.5798C49.0033 23.9206 47.7302 23.659 46.2071 23.729C44.6815 23.7683 43.4311 24.1201 43.2542 23.7915C43.1761 23.6348 43.4124 23.3213 43.93 23.0189C44.4431 22.717 45.246 22.4534 46.1597 22.4196C47.074 22.3879 47.893 22.593 48.4267 22.8581C48.9645 23.1222 49.2231 23.4176 49.156 23.5798Z" fill="#263238"/>
<path d="M61.9893 23.5773C61.6975 23.8495 60.6623 23.4679 59.3917 23.3591C58.1242 23.2134 57.028 23.3813 56.8032 23.0572C56.7054 22.9004 56.8969 22.6207 57.3878 22.3788C57.8722 22.1374 58.6645 21.9696 59.5369 22.0567C60.4088 22.1449 61.1467 22.466 61.5665 22.7981C61.9939 23.1313 62.1189 23.4433 61.9893 23.5773Z" fill="#263238"/>
<path d="M35.7063 33.3902C35.7561 32.6957 35.0747 30.9987 34.3968 30.8404C32.5865 30.4191 29.2737 30.3213 28.8982 34.9707C28.3846 41.3267 34.8716 40.5313 34.8978 40.3499C34.9175 40.2083 35.5339 35.7892 35.7063 33.3902Z" fill="#FFBF9D"/>
<path d="M33.1499 37.7855C33.1237 37.7628 33.033 37.8541 32.839 37.9246C32.6495 37.9932 32.3309 38.0259 32.0099 37.8747C31.3582 37.5744 30.8789 36.4625 30.9409 35.3144C30.9711 34.7343 31.137 34.1935 31.3789 33.754C31.6107 33.305 31.9373 33.0041 32.2805 32.9718C32.6228 32.9209 32.846 33.1427 32.9095 33.3276C32.9806 33.5126 32.9297 33.6361 32.9625 33.6497C32.9786 33.6673 33.1071 33.5545 33.0774 33.2878C33.0612 33.1593 32.9992 33.0031 32.8596 32.869C32.717 32.7324 32.4983 32.6513 32.2604 32.6578C31.7675 32.6523 31.2902 33.0676 31.0246 33.5499C30.7317 34.0327 30.5316 34.6396 30.4974 35.2907C30.4344 36.5749 30.9933 37.8264 31.8909 38.166C32.3284 38.3183 32.7125 38.2139 32.9171 38.0794C33.1263 37.9382 33.1711 37.7986 33.1499 37.7855Z" fill="#FF9A6C"/>
<path d="M33.1546 21.3478C33.0384 21.6458 33.1546 21.028 33.1546 21.3478V21.3478Z" fill="#455A64"/>
<path d="M59.2088 12.4273C56.8435 10.8336 54.9001 8.99302 49.1237 8.98445C44.6633 8.9779 41.3974 11.5725 37.8835 14.6388C33.3697 18.5771 30.5095 24.994 32.4116 30.6741L34.3077 31.4155L36.1095 27.0589C39.2141 20.3053 45.6708 14.6252 52.6386 14.2916C53.3377 14.2583 53.9894 14.2643 54.5654 14.3218C59.1735 14.784 63.8955 23.1726 63.8955 23.1726C63.8955 23.1726 64.7503 16.1604 59.2088 12.4273Z" fill="#E27900"/>
<path d="M34.3182 31.3847C34.42 32.7037 34.6221 33.8946 34.724 35.2131C34.7668 35.769 34.9079 36.4519 35.4452 36.6016C35.8287 36.7085 36.239 36.4539 36.4411 36.1112C36.6437 35.7685 36.687 35.3577 36.7258 34.9616C37.1179 30.9639 37.4516 27.9167 37.8432 23.9189C36.6901 25.5207 35.5087 28.2821 34.3182 31.3847Z" fill="#263238"/>
<path d="M33.2654 41.4043C33.2775 41.4033 33.3027 41.5318 33.219 41.7409C33.1399 41.9491 32.9217 42.2202 32.5563 42.3926C32.1944 42.569 31.6788 42.6108 31.1773 42.4294C30.6809 42.2555 30.1799 41.8437 29.9763 41.246C29.7732 40.6558 29.8669 40.0253 30.1381 39.5657C30.4112 39.0969 30.8497 38.8298 31.2262 38.7184C31.6077 38.6015 31.9368 38.6242 32.149 38.6701C32.3627 38.7179 32.4676 38.7819 32.462 38.7955C32.4575 38.848 31.9817 38.6423 31.2857 38.8943C30.9485 39.0178 30.574 39.2723 30.3482 39.6851C30.1214 40.0923 30.0473 40.6498 30.2237 41.1598C30.3966 41.6714 30.8245 42.0358 31.261 42.2026C31.701 42.375 32.1536 42.3573 32.4817 42.2222C32.8158 42.0897 33.0285 41.8699 33.1268 41.6961C33.2306 41.5217 33.2422 41.4007 33.2654 41.4043Z" fill="#E0E0E0"/>
<path d="M46.6647 15.8822C46.6647 15.8822 51.6891 17.2687 53.3891 16.743C55.3028 16.1508 56.1369 14.6832 56.1369 14.6832C56.1369 14.6832 52.2344 12.961 46.6647 15.8822Z" fill="#263238"/>
<path d="M74.552 28.7861C74.5334 28.767 74.7869 28.5956 75.0828 28.144C75.3741 27.703 75.6982 26.94 75.618 25.9617C75.552 24.994 74.9668 23.8671 73.9034 23.0783C72.8465 22.28 71.332 21.9015 69.754 22.0098L69.5347 22.025L69.6325 21.8264C70.1426 20.7902 70.6203 19.638 70.8129 18.3886C70.9636 17.3932 70.9127 16.3862 70.6178 15.4881C70.326 14.5885 69.7666 13.8314 69.1073 13.2649C67.7687 12.1219 66.1594 11.7035 64.8455 11.5912C63.5155 11.4773 62.4283 11.5997 61.6849 11.6819C61.3351 11.7257 61.0514 11.7615 60.8271 11.7897C60.6311 11.8149 60.5267 11.824 60.5252 11.8154C60.5237 11.8064 60.6245 11.7802 60.818 11.7378C61.0121 11.6965 61.2989 11.64 61.6713 11.5811C62.4137 11.4682 63.5049 11.315 64.8606 11.4067C66.1987 11.4979 67.863 11.9031 69.2646 13.082C69.9551 13.6656 70.5513 14.4614 70.8618 15.4079C71.1752 16.3509 71.2287 17.3988 71.0724 18.4289C70.8728 19.7202 70.3804 20.895 69.8603 21.9403L69.7389 21.7568C71.3637 21.652 72.9377 22.0547 74.036 22.9039C75.1377 23.7406 75.7329 24.933 75.7798 25.9506C75.8403 26.9758 75.4774 27.7559 75.1548 28.1944C74.8267 28.6425 74.552 28.7861 74.552 28.7861Z" fill="#263238"/>
<path d="M22.3754 39.5047C22.3749 39.5092 22.3286 39.5107 22.2374 39.5087C22.1315 39.5047 21.9984 39.4996 21.8336 39.4936C21.4788 39.4749 20.9552 39.4482 20.2833 39.3691C19.614 39.2859 18.7875 39.1564 17.8793 38.8182C16.9847 38.4755 15.9767 37.91 15.2388 36.9116C14.4954 35.9116 14.2197 34.5176 14.2762 33.0963C14.2998 32.3811 14.385 31.6478 14.4904 30.8988C14.5967 30.1524 14.701 29.3697 14.9682 28.5996C15.2307 27.8345 15.6853 27.0765 16.402 26.571C17.1268 26.0393 18.0743 26.0065 18.9266 26.0201C19.7814 26.0292 20.6991 26.0544 21.3977 25.5484C22.0887 25.0454 22.442 24.1548 22.5231 23.2748C22.6093 22.3777 22.4682 21.4766 22.4223 20.5749C22.3694 19.6718 22.4168 18.7777 22.5327 17.9108C22.762 16.1745 23.3078 14.5481 24.0764 13.1349C24.8425 11.7206 25.8339 10.5196 26.9341 9.60486C28.0323 8.68254 29.2293 8.05203 30.3734 7.64732C32.6747 6.81774 34.7169 6.91098 36.0338 7.1655C37.3649 7.43766 38.0297 7.80457 38.0297 7.80457C38.0282 7.8086 37.9823 7.7965 37.8956 7.76878C37.7953 7.73451 37.6698 7.69217 37.5141 7.63925C37.1794 7.52636 36.6764 7.3807 36.0157 7.26579C34.7063 7.04453 32.6928 6.98254 30.4364 7.8217C29.3145 8.23095 28.1437 8.86045 27.0737 9.77118C26.0012 10.6754 25.035 11.8582 24.2886 13.2498C23.5402 14.6398 23.009 16.2395 22.7872 17.9451C22.6748 18.7968 22.6295 19.6743 22.6824 20.5608C22.7267 21.4458 22.8729 22.3586 22.7837 23.3C22.6965 24.2284 22.3291 25.1901 21.5504 25.7601C21.1618 26.0343 20.7022 26.1849 20.2516 26.2358C19.8 26.2913 19.356 26.2812 18.9235 26.2772C18.0678 26.2621 17.2004 26.2973 16.5447 26.7771C15.8859 27.2378 15.4495 27.9479 15.196 28.6797C14.9359 29.4176 14.828 30.1862 14.7182 30.9316C14.6088 31.677 14.5206 32.4018 14.4929 33.1038C14.4289 34.5009 14.6869 35.8396 15.3885 36.8032C16.0855 37.7674 17.0588 38.3334 17.9317 38.6816C18.8167 39.0264 19.6327 39.17 20.2959 39.2683C20.9617 39.362 21.4834 39.4059 21.8367 39.4412C22.001 39.4578 22.133 39.4714 22.2384 39.4825C22.3296 39.4926 22.3759 39.5001 22.3754 39.5047Z" fill="#263238"/>
<path d="M38.5201 14.6418C38.5337 14.6539 38.387 14.856 38.1118 15.2108C37.9717 15.3862 37.8034 15.6029 37.6215 15.8655C37.438 16.1261 37.2152 16.4124 37.0025 16.7526C36.552 17.4153 36.0666 18.2379 35.5798 19.1773C35.106 20.1233 34.6388 21.1908 34.2416 22.3455C33.8546 23.5042 33.5758 24.6356 33.3763 25.6749C33.1913 26.7172 33.0764 27.6652 33.0305 28.465C32.9922 28.8642 32.9947 29.2271 32.9821 29.5456C32.967 29.8641 32.969 30.1388 32.9731 30.3631C32.9761 30.8122 32.969 31.0621 32.9509 31.0632C32.9327 31.0647 32.9055 30.8167 32.8708 30.3666C32.8506 30.1418 32.834 29.8662 32.835 29.5451C32.8335 29.2246 32.8183 28.8586 32.8451 28.4549C32.8672 27.647 32.964 26.6869 33.1379 25.6315C33.3264 24.5787 33.601 23.4321 33.9927 22.2603C34.3943 21.092 34.8742 20.0155 35.3645 19.0654C35.8685 18.1219 36.3756 17.3014 36.8493 16.6467C37.0736 16.3106 37.3085 16.0293 37.5045 15.7758C37.6986 15.5203 37.88 15.3121 38.0327 15.1453C38.3341 14.8097 38.5065 14.6302 38.5201 14.6418Z" fill="#263238"/>
<path d="M43.6029 12.2332C43.6145 12.2474 43.3958 12.4555 42.9915 12.8184C42.7874 12.9973 42.5405 13.2196 42.2678 13.4922C41.9931 13.7629 41.6675 14.0572 41.3404 14.4161C40.6621 15.1086 39.9056 15.9825 39.1198 16.994C38.3482 18.0161 37.5559 19.1819 36.8236 20.4661C36.1019 21.7568 35.5127 23.038 35.0359 24.2264C34.5752 25.4214 34.2179 26.5206 33.9755 27.4596C33.8369 27.9248 33.7532 28.3557 33.6635 28.7307C33.5708 29.1051 33.5083 29.4312 33.4604 29.6984C33.3581 30.2316 33.2931 30.5264 33.2754 30.5239C33.2573 30.5214 33.2885 30.222 33.3601 29.6812C33.3929 29.4106 33.4408 29.08 33.5204 28.7009C33.597 28.3214 33.6686 27.885 33.7961 27.4137C34.0173 26.4627 34.359 25.3493 34.8111 24.1392C35.2793 22.9357 35.8675 21.6394 36.5958 20.3371C37.3346 19.0413 38.1405 17.8685 38.9293 16.8464C39.7317 15.8343 40.5088 14.9669 41.2089 14.2865C41.5466 13.9337 41.8833 13.647 42.1685 13.3854C42.4523 13.1213 42.7103 12.9096 42.9255 12.7418C43.3509 12.4006 43.5913 12.2191 43.6029 12.2332Z" fill="#263238"/>
<path d="M25.784 42.1744C25.7865 42.1779 25.7402 42.2112 25.6464 42.2722C25.5552 42.3372 25.4121 42.4224 25.214 42.5151C24.8214 42.7006 24.1929 42.9158 23.3552 42.9153C22.5287 42.9133 21.4788 42.7011 20.496 42.0166C19.5132 41.3428 18.6958 40.1483 18.3722 38.6852C18.2129 37.9539 18.1731 37.1586 18.2966 36.3487C18.4261 35.5412 18.7068 34.7238 19.1468 33.9617C19.5838 33.1992 20.1609 32.481 20.8625 31.861C21.557 31.23 22.3951 30.7341 23.2494 30.2694C24.0966 29.7961 24.9786 29.3128 25.658 28.5775C26.3495 27.8542 26.8031 26.9062 27.0833 25.9017C27.357 24.8902 27.4754 23.8197 27.5304 22.7306C27.5878 21.6424 27.5808 20.5246 27.6932 19.3966C27.7975 18.2707 28.0067 17.1498 28.4472 16.1216C28.871 15.0864 29.6099 14.1968 30.511 13.5956C31.4107 12.9857 32.4212 12.6304 33.404 12.3467C34.3908 12.0659 35.3666 11.8482 36.2919 11.5609C37.2152 11.2752 38.0952 10.9143 38.8275 10.379C39.01 10.2455 39.1924 10.1134 39.3446 9.95014C39.5049 9.79592 39.6677 9.64573 39.8028 9.47235C40.0795 9.13114 40.3123 8.76121 40.5321 8.38976C40.9695 7.64838 41.3692 6.89137 41.9347 6.28858C42.4962 5.68781 43.1629 5.2448 43.8489 4.94391C45.2293 4.3502 46.6703 4.33558 47.7967 4.70703C48.9337 5.07041 49.7618 5.72965 50.3162 6.34201C50.8762 6.96092 51.1695 7.54858 51.3353 7.94977C51.5021 8.35347 51.5374 8.58228 51.5374 8.58228C51.5203 8.58783 51.4679 8.36355 51.2869 7.97043C51.1075 7.57983 50.8031 7.0088 50.2411 6.41105C49.6852 5.81936 48.8642 5.18684 47.7534 4.84714C46.6552 4.49888 45.2571 4.52811 43.9235 5.11376C43.2612 5.41062 42.6201 5.84406 42.0839 6.42567C41.5451 7.00628 41.1565 7.74867 40.7196 8.49963C40.4998 8.87561 40.2634 9.25613 39.9772 9.61296C39.8371 9.79491 39.6682 9.95316 39.5014 10.1149C39.3421 10.2863 39.1531 10.4249 38.9636 10.565C38.2031 11.1255 37.2984 11.4984 36.364 11.7913C35.4271 12.0856 34.4498 12.3063 33.473 12.5871C32.5008 12.8698 31.5165 13.2211 30.6557 13.8078C29.7938 14.3864 29.0953 15.226 28.6866 16.2249C28.2632 17.2158 28.0566 18.3105 27.9542 19.4218C27.8434 20.5346 27.8499 21.645 27.7909 22.7452C27.7345 23.8429 27.614 24.9321 27.3313 25.9713C27.042 27.003 26.5682 27.9928 25.841 28.7503C25.1233 29.521 24.2151 30.0114 23.3668 30.4821C22.5085 30.9453 21.6961 31.4226 21.0162 32.0344C20.3297 32.6357 19.7653 33.3317 19.3363 34.0706C18.9044 34.8089 18.6277 35.6002 18.4972 36.3809C18.3727 37.1636 18.4055 37.9358 18.5541 38.6469C18.857 40.0697 19.6382 41.2349 20.5817 41.8977C21.5262 42.5725 22.5478 42.7968 23.3567 42.814C24.1768 42.8301 24.7987 42.635 25.1928 42.4677C25.5915 42.3004 25.7734 42.1562 25.784 42.1744Z" fill="#455A64"/>
<path d="M60.5242 30.9941C60.5494 31.6574 60.0082 32.2254 59.3162 32.2642C58.6257 32.3025 58.0441 31.798 58.0194 31.1347C57.9947 30.4715 58.5355 29.9029 59.2259 29.8646C59.9179 29.8258 60.499 30.3314 60.5242 30.9941Z" fill="#263238"/>
<path d="M61.5851 27.1643C61.4299 27.3286 60.4768 26.6265 59.1256 26.633C57.7759 26.6204 56.7856 27.3175 56.6389 27.1521C56.5668 27.0791 56.7251 26.7832 57.156 26.4677C57.5804 26.1537 58.3046 25.8478 59.1463 25.8493C59.988 25.8518 60.6966 26.1603 61.1043 26.4768C61.5201 26.7953 61.6617 27.0912 61.5851 27.1643Z" fill="#263238"/>
<path d="M48.8248 30.9946C48.8495 31.6579 48.3087 32.2254 47.6168 32.2642C46.9263 32.3025 46.3452 31.798 46.32 31.1347C46.2953 30.472 46.8361 29.9029 47.527 29.8646C48.2185 29.8258 48.8002 30.3313 48.8248 30.9946Z" fill="#263238"/>
<path d="M48.7911 27.1647C48.6354 27.329 47.6813 26.627 46.3311 26.6335C44.9814 26.6209 43.991 27.3179 43.8443 27.1531C43.7723 27.0801 43.9285 26.7842 44.3614 26.4692C44.7858 26.1547 45.51 25.8488 46.3517 25.8503C47.1934 25.8533 47.902 26.1618 48.3098 26.4778C48.7251 26.7948 48.8672 27.0911 48.7911 27.1647Z" fill="#263238"/>
<path d="M71.7181 69.4574C65.8848 62.3596 60.8417 61.3511 60.8417 61.3511L60.8755 86.6781L79.4711 110.197L87.0361 90.8406C87.0361 90.8406 75.6699 74.2661 71.7181 69.4574Z" fill="#E27900"/>
<path d="M52.5801 59.3457L60.9163 61.3692C60.9163 61.3692 65.2205 86.3319 63.6596 92.7886C62.331 98.2822 58.0687 123.633 58.0687 123.633H6.6723L23.893 74.1613C23.893 74.1613 23.9923 63.2854 21.3342 58.2601C22.9454 57.8725 28.3876 56.8715 33.0905 55.9885C33.0905 55.9885 36.2168 59.8905 43.5752 61.0053C50.9331 62.1202 52.5801 59.3457 52.5801 59.3457Z" fill="#E27900"/>
<path d="M62.7831 80.2531H30.4924C27.67 96.7677 20.7994 103.1 8.68175 112.66L6.6723 123.633H58.0687L61.0514 106.393L60.876 100.044L62.7831 80.2531Z" fill="#455A64"/>
<path d="M22.573 58.0161C22.573 58.0161 10.292 58.9999 5.88557 79.1206C3.89225 88.2213 1.37427 98.8875 0.64851 106.056C0.12183 111.255 1.98158 118.441 6.97925 119.631L16.0563 120.789C20.111 120.849 22.8936 117.555 23.7468 114.024L25.1626 108.411C26.1383 101.548 20.9133 100.953 17.9755 101.017L24.4378 75.4601L25.6892 63.0939L22.573 58.0161Z" fill="#E27900"/>
<path d="M64.5224 75.1304C64.529 75.1294 64.5482 75.2262 64.5789 75.4112C64.6101 75.6153 64.651 75.8849 64.7024 76.2221C64.7281 76.4005 64.7563 76.5961 64.787 76.8088C64.8092 77.026 64.8329 77.2598 64.8581 77.5103C64.909 78.0138 64.9705 78.5874 64.9972 79.2244C65.0905 80.496 65.0884 82.0161 65.0275 83.6999C64.9564 85.3843 64.7654 87.23 64.4836 89.1532C64.2014 91.0775 63.8466 92.8964 63.4867 94.5415C63.1334 96.1881 62.771 97.6602 62.4651 98.8955C62.1526 100.129 61.8936 101.126 61.7056 101.813C61.6144 102.141 61.5413 102.404 61.4864 102.602C61.4339 102.782 61.4037 102.876 61.3971 102.874C61.3906 102.873 61.4082 102.775 61.448 102.592C61.4944 102.391 61.5554 102.126 61.6315 101.794C61.8014 101.081 62.0387 100.084 62.33 98.8623C62.6183 97.6235 62.9666 96.1493 63.3098 94.5032C63.6596 92.8586 64.0084 91.0427 64.2896 89.124C64.5703 87.2063 64.7659 85.3682 64.847 83.6909C64.9176 82.0141 64.9337 80.4995 64.8586 79.231C64.841 78.5954 64.7896 78.0234 64.7493 77.5199C64.7296 77.2694 64.7114 77.0351 64.6943 76.8183C64.6701 76.6051 64.6474 76.4091 64.6268 76.2307C64.5905 75.892 64.5618 75.6208 64.5401 75.4162C64.5219 75.2302 64.5159 75.1314 64.5224 75.1304Z" fill="#263238"/>
<path d="M8.27808 108.074C8.267 108.072 8.2937 107.89 8.37535 107.568C8.45599 107.246 8.60518 106.787 8.84962 106.245C9.32993 105.163 10.279 103.749 11.7607 102.67C13.243 101.591 14.8815 101.124 16.0583 100.999C16.65 100.933 17.1324 100.932 17.464 100.954C17.7951 100.975 17.9765 101.006 17.9755 101.017C17.9745 101.058 17.2402 100.971 16.0765 101.136C14.9213 101.295 13.3261 101.774 11.8766 102.829C10.4281 103.883 9.48113 105.254 8.97562 106.304C8.46003 107.36 8.31689 108.086 8.27808 108.074Z" fill="#263238"/>
<path d="M11.1171 98.0509C11.1171 98.0373 11.2225 98.0282 11.414 98.0232C11.6055 98.0156 11.8827 98.0267 12.2234 98.0589C12.9048 98.1224 13.8433 98.3135 14.8145 98.7111C15.7852 99.1118 16.5865 99.6365 17.1152 100.071C17.3803 100.288 17.5849 100.475 17.7155 100.615C17.848 100.753 17.9161 100.833 17.907 100.844C17.8843 100.867 17.5754 100.581 17.0305 100.181C16.4872 99.7811 15.6909 99.2862 14.7399 98.8931C13.7873 98.503 12.8741 98.2948 12.2063 98.197C11.5375 98.0977 11.1166 98.0841 11.1171 98.0509Z" fill="#263238"/>
<path d="M23.83 71.9976C23.8164 71.9971 23.8063 71.805 23.8003 71.4598C23.7977 71.1141 23.7781 70.6141 23.7358 69.9987C23.6536 68.7679 23.4248 67.0725 22.9188 65.2596C22.4077 63.4472 21.7203 61.8803 21.1497 60.7866C20.8655 60.2393 20.6225 59.8018 20.4446 59.5054C20.2703 59.2071 20.179 59.0382 20.1901 59.0307C20.2012 59.0231 20.3146 59.1778 20.5097 59.4651C20.7077 59.7499 20.9708 60.1788 21.2722 60.7211C21.8775 61.8047 22.5917 63.3777 23.1078 65.2062C23.6188 67.0352 23.8275 68.7503 23.8744 69.9906C23.899 70.6111 23.898 71.1135 23.8769 71.4603C23.8597 71.8071 23.8436 71.9981 23.83 71.9976Z" fill="#263238"/>
<g opacity="0.3">
<path d="M63.9569 92.0245C67.0903 86.7184 67.1573 79.8232 64.4236 74.3004C65.2391 80.1815 65.1726 86.2099 63.8642 92.0013" fill="black"/>
</g>
<path d="M21.4698 118.571C21.4496 118.554 21.2566 118.828 20.7984 119.205C20.3378 119.576 19.5767 120.007 18.5506 120.278C17.528 120.559 16.2539 120.675 14.8517 120.603C13.4491 120.502 11.9018 120.338 10.2936 120.099C8.69035 119.85 7.15012 119.561 5.84476 119.074C5.20367 118.807 4.6664 118.4 4.20978 117.982C3.75416 117.559 3.37667 117.114 3.06621 116.684C2.44326 115.823 2.05568 115.047 1.81124 114.505C1.69432 114.232 1.60259 114.019 1.54816 113.871C1.4902 113.725 1.45643 113.65 1.45039 113.652C1.44383 113.654 1.465 113.734 1.51086 113.885C1.5537 114.037 1.63384 114.255 1.74119 114.535C1.96547 115.09 2.33691 115.882 2.95381 116.765C3.26075 117.206 3.63774 117.664 4.0989 118.101C4.56107 118.534 5.10841 118.958 5.77369 119.241C7.11534 119.752 8.65002 120.041 10.2643 120.293C11.8817 120.533 13.4269 120.692 14.8427 120.784C16.2619 120.847 17.5522 120.715 18.5874 120.412C19.6261 120.119 20.3937 119.66 20.8468 119.264C21.0676 119.058 21.2339 118.895 21.3261 118.765C21.4259 118.641 21.4748 118.575 21.4698 118.571Z" fill="#263238"/>
<path d="M23.4963 78.4105C23.4439 78.3974 22.1486 83.4248 20.6043 89.6386C19.0596 95.8544 17.85 100.902 17.9029 100.915C17.9553 100.928 19.2501 95.9018 20.7949 89.686C22.3396 83.4722 23.5487 78.4236 23.4963 78.4105Z" fill="#263238"/>
<path d="M25.0603 106.784C25.0734 106.784 25.0971 106.638 25.1228 106.37C25.1455 106.103 25.1822 105.715 25.149 105.229C25.1208 104.744 24.9565 104.158 24.5971 103.618C24.4187 103.35 24.2216 103.076 23.9666 102.826C23.7146 102.577 23.4152 102.364 23.0942 102.177C21.7863 101.465 20.4683 101.168 19.5193 101.023C19.0425 100.955 18.6534 100.929 18.3848 100.922C18.1162 100.915 17.9675 100.925 17.967 100.937C17.965 100.97 18.5587 100.992 19.4971 101.16C20.426 101.336 21.7288 101.657 22.9964 102.347C23.3064 102.527 23.5931 102.73 23.833 102.964C24.0729 103.195 24.27 103.462 24.4459 103.717C24.7982 104.231 24.965 104.773 25.0109 105.242C25.0608 105.711 25.0462 106.1 25.0467 106.367C25.0442 106.634 25.0462 106.783 25.0603 106.784Z" fill="#263238"/>
<path d="M49.8964 106.079C49.8895 106.082 49.8821 106.085 49.8748 106.089C49.8811 106.086 49.8885 106.082 49.8964 106.079Z" fill="#FFBF9D"/>
<path d="M49.7616 106.143C49.7442 106.152 49.7278 106.159 49.713 106.166C49.7268 106.159 49.7422 106.152 49.7616 106.143Z" fill="#FFBF9D"/>
<path d="M49.8733 106.09C49.8298 106.11 49.7918 106.129 49.7623 106.143C49.8003 106.125 49.8403 106.106 49.8733 106.09Z" fill="#FFBF9D"/>
<path d="M49.9456 106.055C49.9272 106.064 49.9133 106.071 49.8969 106.079C49.9252 106.065 49.9456 106.055 49.9456 106.055Z" fill="#FFBF9D"/>
<path d="M61.4817 116.652C60.4958 114.787 52.7902 109.869 52.7902 109.869L54.8762 109.387L57.179 110.361C57.179 110.361 57.3232 111.311 58.1699 112.518C59.0171 113.726 60.454 112.477 60.454 112.477L59.4808 107.813L54.9246 105.071C54.9246 105.071 50.6376 105.726 49.9456 106.055L48.1181 107.728C47.3162 108.357 45.0009 110.835 44.3673 110.91C43.7338 110.986 23.846 106.511 23.846 106.511C21.1193 108.671 19.6829 112.961 19.2495 116.055C19.2495 116.055 18.7646 117.575 19.2923 118.4L43.7066 120.316L48.8796 121.746C48.8796 121.746 51.7419 122.915 53.1304 123.206C54.8515 123.568 56.0112 123.013 56.0571 122.06C56.1035 121.107 54.7684 121.005 54.7684 121.005C54.7684 121.005 52.5961 120.219 51.4415 119.541C50.2868 118.864 49.5636 117.481 49.5636 117.481L51.4082 117.702C51.4082 117.702 55.3293 120.423 56.8035 121.222C58.2777 122.02 58.5685 120.555 58.6875 120.108C58.8064 119.662 54.2835 115.237 54.2835 115.237C54.2835 115.237 58.5842 117.889 59.3578 118.558C60.1314 119.226 61.278 119.426 61.5235 118.978C61.7694 118.529 62.4675 118.517 61.4817 116.652Z" fill="#FFBF9D"/>
<path d="M49.7118 106.167C49.6939 106.175 49.68 106.182 49.6691 106.187C49.681 106.182 49.6954 106.175 49.7118 106.167Z" fill="#FFBF9D"/>
<path d="M49.6458 106.198C49.6382 106.202 49.6382 106.202 49.6458 106.198V106.198Z" fill="#FFBF9D"/>
<path d="M49.6691 106.187C49.6585 106.192 49.6504 106.197 49.6454 106.199C49.6499 106.197 49.6575 106.193 49.6691 106.187Z" fill="#FFBF9D"/>
<path d="M40.2639 117.083C40.2513 117.084 40.2437 116.977 40.2407 116.781C40.2347 116.683 40.2447 116.564 40.2644 116.426C40.2775 116.287 40.3017 116.13 40.3491 115.961C40.5028 115.275 40.9438 114.391 41.5985 113.552C42.2527 112.711 42.9568 112.052 43.4794 111.597C44.0046 111.144 44.3523 110.893 44.367 110.91C44.3846 110.932 44.0661 111.217 43.5656 111.692C43.0676 112.168 42.3847 112.836 41.7416 113.663C41.098 114.488 40.653 115.336 40.4726 115.994C40.282 116.65 40.3017 117.084 40.2639 117.083Z" fill="#FF9A6C"/>
<path d="M52.6129 109.724C52.6205 109.769 52.0061 109.847 51.298 109.606C50.5878 109.371 50.1448 108.938 50.1781 108.907C50.2108 108.863 50.6821 109.212 51.3554 109.434C52.0262 109.664 52.6129 109.669 52.6129 109.724Z" fill="#FF9A6C"/>
<path d="M53.8931 114.83C53.874 114.876 52.996 114.559 51.9315 114.121C50.8671 113.683 50.0199 113.291 50.039 113.244C50.0582 113.198 50.9361 113.516 52.0006 113.954C53.065 114.392 53.9123 114.784 53.8931 114.83Z" fill="#FF9A6C"/>
<path d="M49.7613 117.439C49.7371 117.484 49.3002 117.295 48.7553 117.083C48.2115 116.869 47.762 116.712 47.7746 116.662C47.7861 116.615 48.2655 116.696 48.8209 116.914C49.3773 117.131 49.785 117.396 49.7613 117.439Z" fill="#FF9A6C"/>
<path d="M53.2591 115.17C53.2787 115.22 52.8322 115.386 52.4985 115.834C52.1548 116.276 52.1145 116.751 52.0611 116.745C52.0389 116.744 52.0157 116.623 52.046 116.427C52.0752 116.232 52.1704 115.967 52.3544 115.725C52.5389 115.483 52.7687 115.32 52.9486 115.24C53.1291 115.16 53.2525 115.149 53.2591 115.17Z" fill="#FF9A6C"/>
<path d="M55.0684 112.321C55.0921 112.368 54.7549 112.55 54.5327 112.942C54.3013 113.327 54.3079 113.711 54.2555 113.713C54.2096 113.73 54.1138 113.295 54.3764 112.85C54.6345 112.403 55.0604 112.272 55.0684 112.321Z" fill="#FF9A6C"/>
<path d="M54.4545 107.229C54.4344 107.239 54.3643 107.154 54.3104 106.986C54.256 106.82 54.2323 106.57 54.2953 106.307C54.3593 106.044 54.4949 105.832 54.6188 105.71C54.7433 105.585 54.8446 105.542 54.8577 105.559C54.8925 105.599 54.579 105.874 54.4707 106.349C54.3507 106.821 54.5034 107.21 54.4545 107.229Z" fill="#FF9A6C"/>
<path d="M19.0763 119.1C19.0899 119.099 19.101 118.899 19.109 118.539C19.111 118.358 19.1161 118.138 19.1347 117.883C19.1514 117.627 19.1579 117.336 19.1952 117.016C19.3061 115.736 19.5919 113.969 20.2612 112.124C20.6009 111.205 21.0031 110.361 21.4179 109.62C21.6421 109.26 21.8387 108.907 22.0635 108.604C22.1713 108.45 22.2762 108.301 22.377 108.157C22.4853 108.02 22.5902 107.888 22.6904 107.762C23.5014 106.764 24.1228 106.254 24.0936 106.222C24.0845 106.212 23.9298 106.338 23.6556 106.575C23.5155 106.691 23.3517 106.84 23.1758 107.029C22.9969 107.214 22.7852 107.419 22.5836 107.673C22.4788 107.799 22.3699 107.929 22.257 108.064C22.1487 108.204 22.0433 108.356 21.9304 108.51C21.6971 108.813 21.4924 109.167 21.2616 109.529C20.8327 110.274 20.4204 111.127 20.0767 112.057C19.3993 113.924 19.1332 115.715 19.0571 117.006C19.0284 117.329 19.0319 117.623 19.0254 117.88C19.0173 118.137 19.0233 118.358 19.0329 118.539C19.0475 118.901 19.0627 119.1 19.0763 119.1Z" fill="#263238"/>
<g opacity="0.3">
<path d="M35.9905 83.6571V84.3214L32.277 84.5633L30.3956 69.6051C30.3956 69.6051 29.5957 64.5722 29.0786 62.7376C28.561 60.9031 26.354 57.2531 26.354 57.2531L27.9885 56.9446L31.1717 62.1263L35.9905 83.6571Z" fill="black"/>
</g>
<path d="M36.4794 83.6345C36.4794 83.6345 34.8333 69.7427 33.2785 64.1937C31.7236 58.6446 29.2989 56.6669 29.2989 56.6669L26.9069 57.117C26.9069 57.117 29.2878 60.0155 30.2096 65.1246C31.1315 70.2331 32.8541 83.8013 32.8541 83.8013L36.4794 83.6345Z" fill="#455A64"/>
<path d="M36.4794 83.6345C36.4834 83.638 36.4083 83.645 36.2566 83.6561C36.0873 83.6672 35.861 83.6823 35.5712 83.702C34.9377 83.7393 34.03 83.7927 32.8571 83.8613L32.8017 83.8648L32.7936 83.8083C32.4444 81.2828 31.9172 77.4715 31.2731 72.8156C30.9339 70.4831 30.574 67.9339 30.1028 65.2485C29.8684 63.9104 29.494 62.5597 28.9809 61.2276C28.4623 59.9011 27.8076 58.5801 26.9447 57.3826L26.8056 57.1997L26.6741 57.0268L26.8827 56.9875C27.7022 56.8333 28.5112 56.6815 29.2747 56.5379L29.3392 56.5258L29.3821 56.5651C30.1396 57.2637 30.7071 58.0746 31.2116 58.9067C31.7116 59.7408 32.1253 60.6037 32.4822 61.4685C33.1868 63.2038 33.6399 64.9527 33.9826 66.6194C34.6665 69.9564 35.1131 72.9698 35.478 75.4913C35.8378 78.0139 36.0918 80.0495 36.2576 81.4537C36.3342 82.1426 36.3942 82.6834 36.4371 83.0695C36.4532 83.2434 36.4658 83.382 36.4759 83.4903C36.4819 83.5921 36.4824 83.6375 36.4794 83.6345C36.4769 83.6319 36.4658 83.58 36.4497 83.4928C36.4335 83.3855 36.4124 83.2484 36.3867 83.0765C36.3327 82.692 36.2571 82.1532 36.1604 81.4668C35.9653 80.0666 35.6841 78.0355 35.3015 75.518C34.9135 73.0021 34.4478 69.9927 33.7523 66.6688C33.4035 65.0081 32.9489 63.2794 32.2478 61.5648C31.8935 60.7105 31.4827 59.8598 30.9898 59.0403C30.4984 58.2273 29.9213 57.4174 29.2163 56.7682L29.3231 56.7955C28.56 56.9391 27.7511 57.0913 26.9311 57.246L27.0082 57.0338L27.1559 57.2274C28.0399 58.4546 28.6981 59.7882 29.2233 61.1344C29.7414 62.4836 30.1179 63.8525 30.3513 65.2047C30.817 67.8996 31.1672 70.4488 31.4943 72.7849C32.1364 77.458 32.6132 81.2838 32.9141 83.7932L32.8511 83.7403C34.0098 83.702 34.9064 83.6728 35.5319 83.6521C35.8282 83.6445 36.0601 83.6385 36.2329 83.634C36.3922 83.6309 36.4754 83.6309 36.4794 83.6345Z" fill="#263238"/>
<path d="M60.8417 61.3511C60.8417 61.3511 61.3951 76.5361 59.492 84.3209L55.8632 84.205C55.8632 84.205 58.5596 65.3221 58.2043 60.6112C58.2043 60.6112 59.7309 60.6062 60.8417 61.3511Z" fill="#455A64"/>
<path d="M60.8417 61.3511C60.8271 61.3597 60.6371 61.2241 60.2047 61.0477C59.7753 60.8809 59.0979 60.6873 58.2043 60.6697L58.2612 60.6077C58.3953 62.729 58.1388 66.0449 57.733 70.1212C57.3127 74.1981 56.7195 79.04 55.9927 84.2241L55.8672 84.0744C55.897 84.0755 55.9287 84.0765 55.961 84.0775C57.1721 84.1163 58.3641 84.1551 59.496 84.1914L59.3655 84.2907C60.0852 81.1255 60.3624 78.0572 60.5464 75.2968C60.7238 72.5318 60.7888 70.0582 60.8216 67.9918C60.8533 65.9254 60.8442 64.2652 60.8382 63.1221C60.8352 62.5657 60.8326 62.1278 60.8311 61.8087C60.8301 61.5063 60.8347 61.3577 60.8417 61.3511C60.8488 61.344 60.8644 61.5088 60.88 61.8062C60.8931 62.1252 60.9108 62.5632 60.9329 63.1196C60.9682 64.2627 61.0035 65.9239 60.9954 67.9928C60.9859 70.0617 60.9405 72.5389 60.7772 75.3104C60.6074 78.0789 60.3412 81.1543 59.6185 84.3516L59.5953 84.454L59.488 84.4504C58.356 84.4146 57.164 84.3768 55.9529 84.339C55.9207 84.338 55.8889 84.337 55.8592 84.336L55.713 84.3315L55.7332 84.1863C56.4594 79.0062 57.0678 74.1678 57.5133 70.0975C57.9447 66.0282 58.2365 62.7174 58.1468 60.6158L58.1443 60.5518L58.2043 60.5543C59.1216 60.5901 59.7979 60.8053 60.2278 60.9923C60.4431 61.0895 60.5963 61.1767 60.6986 61.2452C60.7999 61.3138 60.8463 61.3486 60.8417 61.3511Z" fill="#263238"/>
<path d="M57.0535 82.1167C57.0535 82.7165 57.5394 83.2024 58.1391 83.2024C58.7389 83.2024 59.2248 82.7165 59.2248 82.1167C59.2248 81.517 58.7389 81.0311 58.1391 81.0311C57.5394 81.0311 57.0535 81.5175 57.0535 82.1167Z" fill="#E0E0E0"/>
<path d="M58.1393 83.2156C57.5335 83.2156 57.0406 82.7227 57.0406 82.1169C57.0406 81.5111 57.5335 81.0182 58.1393 81.0182C58.7451 81.0182 59.238 81.5111 59.238 82.1169C59.2375 82.7232 58.7451 83.2156 58.1393 83.2156ZM58.1393 81.0444C57.5476 81.0444 57.0663 81.5257 57.0663 82.1174C57.0663 82.7091 57.5476 83.1904 58.1393 83.1904C58.731 83.1904 59.2123 82.7091 59.2123 82.1174C59.2123 81.5257 58.731 81.0444 58.1393 81.0444Z" fill="#263238"/>
<path d="M34.4168 82.8399C35.0164 82.8399 35.5025 82.3539 35.5025 81.7543C35.5025 81.1548 35.0164 80.6687 34.4168 80.6687C33.8173 80.6687 33.3312 81.1548 33.3312 81.7543C33.3312 82.3539 33.8173 82.8399 34.4168 82.8399Z" fill="#E0E0E0"/>
<path d="M34.4165 82.8527C33.8112 82.8527 33.3183 82.3603 33.3183 81.7545C33.3183 81.1487 33.8112 80.6558 34.4165 80.6558C35.0223 80.6558 35.5152 81.1487 35.5152 81.7545C35.5152 82.3603 35.0228 82.8527 34.4165 82.8527ZM34.4165 80.682C33.8248 80.682 33.344 81.1633 33.344 81.755C33.344 82.3467 33.8248 82.8275 34.4165 82.8275C35.0082 82.8275 35.4895 82.3467 35.4895 81.755C35.4895 81.1633 35.0082 80.682 34.4165 80.682Z" fill="#263238"/>
<path d="M56.0915 93.2367C56.0961 93.2367 56.0991 93.2931 56.1001 93.403C56.0996 93.527 56.0986 93.6877 56.0976 93.8903C56.0905 94.3187 56.0799 94.9508 56.0159 95.7637C55.9484 96.5741 55.8405 97.5746 55.5059 98.6914C55.1899 99.8154 54.5291 101 53.5947 102.125C51.7727 104.439 48.4806 106.213 44.6401 106.701C43.677 106.811 42.6796 106.832 41.667 106.741C40.659 106.651 39.6148 106.424 38.6632 105.947C36.744 105.026 35.1302 103.382 34.0894 101.398C33.0426 99.4046 32.6046 97.2046 32.531 95.105C32.5169 94.5753 32.5043 94.0627 32.5482 93.533C32.5759 93.2699 32.6258 93.0013 32.7488 92.7508C32.8677 92.5013 33.0789 92.2796 33.3389 92.1692C33.8681 91.954 34.3883 92.0553 34.8716 92.0573C35.3635 92.077 35.8499 92.0961 36.3302 92.1158C40.1696 92.2735 43.6286 92.4156 46.5397 92.5351C49.4327 92.6636 51.7798 92.7679 53.4218 92.8405C54.2207 92.8819 54.8476 92.9141 55.2922 92.9368C55.4943 92.9499 55.6551 92.9605 55.7785 92.9685C55.8879 92.9771 55.9438 92.9837 55.9438 92.9882C55.9438 92.9927 55.8874 92.9952 55.7775 92.9952C55.6535 92.9937 55.4928 92.9917 55.2902 92.9897C54.8451 92.9786 54.2176 92.9625 53.4178 92.9423C51.7748 92.8894 49.4271 92.8138 46.5327 92.7201C43.6205 92.6162 40.1611 92.4933 36.3206 92.3567C35.8403 92.339 35.3539 92.3214 34.8615 92.3033C34.3727 92.2967 33.8576 92.2186 33.4402 92.398C33.0169 92.5749 32.84 93.0698 32.8007 93.5577C32.7603 94.0521 32.7724 94.5788 32.7876 95.0949C32.8637 97.1653 33.2976 99.326 34.3212 101.275C35.3378 103.214 36.9138 104.818 38.7741 105.714C39.6984 106.178 40.6973 106.398 41.6902 106.49C42.6821 106.582 43.6654 106.564 44.6124 106.459C48.3995 105.989 51.6412 104.265 53.4516 102.005C54.3845 100.9 55.0407 99.7494 55.3652 98.6471C55.7085 97.5509 55.8309 96.5595 55.9136 95.7536C55.9927 94.9457 56.02 94.3147 56.0441 93.8873C56.0557 93.6852 56.0653 93.5245 56.0724 93.401C56.0809 93.2926 56.087 93.2367 56.0915 93.2367Z" fill="#263238"/>
<g opacity="0.3">
<path d="M27.9194 107.385C28.1956 105.518 27.6387 103.666 26.4508 102.2C25.2628 100.733 23.4444 99.7957 21.5605 99.6777C21.3473 93.3208 21.813 86.9412 22.948 80.6825L17.9075 100.844C17.9075 100.844 24.9267 100.94 25.0607 106.784L27.9194 107.385Z" fill="black"/>
</g>
<g opacity="0.3">
<path d="M33.277 30.6247C33.8062 26.4969 35.2587 22.4901 37.4975 18.9823C37.7439 18.5962 38.0055 18.1058 37.7737 17.7107C37.5756 17.3725 37.0862 17.3055 36.7279 17.4653C36.3695 17.625 36.116 17.9496 35.8897 18.2701C33.4226 21.7654 32.4696 26.2918 33.3183 30.4846" fill="black"/>
</g>
<path d="M120.379 88.7107L113.249 123.716H63.8179H51.359C50.6766 123.716 50.1227 123.162 50.1227 122.479C50.1227 121.797 50.6761 121.243 51.359 121.243H63.8179L70.4283 88.688C70.5553 88.0636 71.1012 87.6125 71.7382 87.6054L119.04 87.0888C119.901 87.0798 120.551 87.867 120.379 88.7107Z" fill="#E0E0E0"/>
<path d="M120.379 88.7107C120.379 88.7107 120.387 88.6759 120.398 88.6053C120.41 88.5353 120.419 88.4279 120.404 88.2873C120.38 88.0167 120.233 87.5621 119.75 87.2642C119.631 87.1911 119.492 87.1382 119.341 87.1019C119.188 87.0676 119.023 87.0702 118.854 87.0717C118.514 87.0742 118.143 87.0772 117.74 87.0802C116.934 87.0868 116.004 87.0948 114.956 87.1034C110.757 87.1432 104.664 87.2012 97.0703 87.2728C93.2726 87.3111 89.1 87.3534 84.6023 87.3983C82.3535 87.4214 80.023 87.4456 77.6179 87.4703C76.4154 87.4829 75.1936 87.4955 73.9543 87.5081C73.3344 87.5147 72.7105 87.5212 72.0815 87.5278C71.9222 87.5318 71.7725 87.5253 71.6027 87.5394C71.4373 87.5565 71.2746 87.6039 71.1249 87.6775C70.825 87.8241 70.5785 88.0807 70.4455 88.3896C70.3759 88.5443 70.3472 88.7127 70.3159 88.8654L70.2202 89.3361C70.1562 89.6506 70.0922 89.9661 70.0277 90.2827C69.8991 90.9157 69.7691 91.5527 69.6386 92.1938C69.3775 93.476 69.1134 94.7743 68.8463 96.0877C68.312 98.7151 67.7647 101.403 67.2068 104.147C66.0914 109.635 64.9307 115.344 63.7352 121.226L63.8179 121.158C61.4778 121.158 59.0803 121.158 56.6429 121.158C55.4243 121.158 54.1955 121.158 52.9597 121.158H52.0313H51.5661C51.4154 121.159 51.2496 121.15 51.0843 121.187C50.7577 121.254 50.4624 121.453 50.2734 121.727C50.0819 122 50.0032 122.349 50.0541 122.679C50.1106 123.084 50.3732 123.447 50.7295 123.641C50.9084 123.737 51.1095 123.791 51.3116 123.799L51.8826 123.801C52.6396 123.801 53.3946 123.801 54.1471 123.801C55.6526 123.801 57.1489 123.801 58.6357 123.801C61.6093 123.801 64.5451 123.801 67.4356 123.8C73.2165 123.799 78.8189 123.798 84.1906 123.796C94.9338 123.791 104.756 123.786 113.249 123.782H113.303L113.313 123.729C115.492 112.97 117.266 104.218 118.494 98.1521C119.104 95.1216 119.578 92.7628 119.9 91.1586C120.059 90.3593 120.18 89.7484 120.262 89.3346C120.343 88.9223 120.379 88.7107 120.379 88.7107C120.379 88.7107 120.33 88.9198 120.243 89.3301C120.157 89.7429 120.029 90.3527 119.863 91.1505C119.532 92.7533 119.046 95.1095 118.422 98.137C117.18 104.2 115.388 112.948 113.185 123.702L113.249 123.65C104.756 123.645 94.9333 123.641 84.1901 123.635C78.8184 123.634 73.2165 123.633 67.4351 123.631C64.5446 123.631 61.6088 123.631 58.6352 123.63C57.1484 123.63 55.6521 123.63 54.1466 123.63C53.3941 123.63 52.6392 123.63 51.8821 123.63L51.3172 123.628C51.1408 123.621 50.9664 123.574 50.8106 123.491C50.5007 123.322 50.2719 123.005 50.223 122.653C50.1786 122.365 50.2467 122.063 50.4135 121.824C50.5783 121.586 50.8358 121.412 51.1196 121.354C51.2597 121.322 51.4074 121.33 51.5661 121.329H52.0313H52.9597C54.196 121.329 55.4243 121.329 56.6429 121.329C59.0803 121.329 61.4778 121.328 63.8179 121.328H63.8869L63.9005 121.26C65.0935 115.378 66.2517 109.669 67.365 104.18C67.9214 101.436 68.4663 98.7468 68.999 96.119C69.2651 94.805 69.5282 93.5067 69.7883 92.2246C69.9183 91.5835 70.0473 90.9464 70.1753 90.3134C70.2393 89.9969 70.3034 89.6814 70.3674 89.3669L70.4626 88.8961C70.4954 88.7364 70.5206 88.5867 70.5826 88.4501C70.7015 88.1734 70.9218 87.9436 71.1899 87.812C71.3239 87.7455 71.4696 87.7037 71.6178 87.6881C71.7624 87.6755 71.9282 87.6805 72.083 87.6765C72.7115 87.6694 73.3359 87.6619 73.9553 87.6548C75.1947 87.6407 76.4164 87.6266 77.6189 87.613C80.024 87.5852 82.3545 87.5585 84.6033 87.5323C89.101 87.4794 93.2732 87.4305 97.0708 87.3857C104.664 87.2919 110.757 87.2163 114.956 87.1649C116.005 87.1508 116.934 87.1382 117.74 87.1271C118.143 87.1216 118.514 87.116 118.854 87.1115C119.024 87.1085 119.184 87.1049 119.333 87.1372C119.48 87.1715 119.617 87.2214 119.733 87.2919C120.208 87.5787 120.359 88.0227 120.388 88.2898C120.417 88.568 120.37 88.7102 120.379 88.7107Z" fill="#263238"/>
<path d="M91.8599 104.73C91.8599 105.859 92.7752 106.775 93.9041 106.775C95.0331 106.775 95.9484 105.859 95.9484 104.73C95.9484 103.601 95.0331 102.686 93.9041 102.686C92.7752 102.687 91.8599 103.602 91.8599 104.73Z" fill="white"/>
<path d="M120.322 88.9939C120.322 88.9939 120.25 88.9889 120.109 88.9869C119.961 88.9859 119.754 88.9848 119.483 88.9833C118.926 88.9838 118.117 88.9849 117.077 88.9864C114.981 88.9964 111.959 89.0111 108.227 89.0292C100.75 89.0821 90.4306 89.1547 79.0326 89.2353C77.6068 89.2469 76.1986 89.258 74.8101 89.2691C74.4629 89.2721 74.1171 89.2747 73.7729 89.2777C73.6051 89.2812 73.4251 89.2706 73.2432 89.3094C73.0648 89.3457 72.8939 89.4153 72.7412 89.513C72.4348 89.7071 72.2054 90.017 72.1132 90.3648C72.0361 90.707 71.9781 91.0311 71.9101 91.3627C71.3869 93.9997 70.8819 96.5433 70.4011 98.9661C69.4435 103.812 68.5812 108.176 67.8559 111.843C67.1387 115.505 66.5576 118.47 66.1549 120.527C65.9589 121.548 65.8057 122.343 65.7008 122.889C65.6514 123.156 65.6136 123.36 65.5869 123.505C65.5622 123.644 65.5536 123.715 65.5536 123.715C65.5536 123.715 65.5733 123.646 65.6041 123.508C65.6348 123.365 65.6781 123.161 65.7346 122.896C65.847 122.352 66.0103 121.559 66.2199 120.54C66.6352 118.487 67.2345 115.525 67.9744 111.867C68.7092 108.202 69.5841 103.84 70.5554 98.9978C71.0392 96.5751 71.5472 94.0324 72.0739 91.3965C72.1409 91.0699 72.2029 90.7292 72.275 90.4102C72.3571 90.1017 72.5603 89.828 72.8314 89.6562C72.9665 89.57 73.1182 89.5085 73.2759 89.4762C73.4312 89.4415 73.5985 89.451 73.7739 89.448C74.1181 89.4455 74.4644 89.4425 74.8111 89.44C76.1991 89.4294 77.6078 89.4183 79.0336 89.4072C90.4316 89.3074 100.751 89.2167 108.228 89.1512C111.96 89.1103 114.982 89.0771 117.077 89.0539C118.118 89.0388 118.927 89.0267 119.483 89.0186C119.754 89.0126 119.962 89.0085 120.109 89.005C120.249 89.0005 120.322 88.9939 120.322 88.9939Z" fill="#263238"/>
</svg>
