<svg width="18" height="18" viewBox="0 0 18 18" fill="none" xmlns="http://www.w3.org/2000/svg">
<g clip-path="url(#clip0_1_1390)">
<path d="M17.2496 0.751718C16.6294 0.122863 15.725 -0.134971 14.8664 0.0723159L3.40209 2.48172C1.22497 2.80388 -0.278764 4.82996 0.0433968 7.00704C0.16864 7.85345 0.563001 8.63707 1.16813 9.24199L2.39719 10.4718C2.45473 10.5286 2.4869 10.6062 2.48644 10.6871V12.9547C2.48809 14.3655 3.63131 15.5087 5.04207 15.5104H7.30974C7.39069 15.5104 7.46838 15.5425 7.52571 15.5996L8.75477 16.8287C9.49794 17.5768 10.5086 17.9978 11.5631 17.9985C11.9984 17.9981 12.4307 17.927 12.8432 17.7878C14.2665 17.3151 15.3007 16.0791 15.515 14.5947L17.9244 3.16639C18.1409 2.29879 17.8845 1.38135 17.2496 0.751718ZM2.34098 5.87047C2.54479 5.2408 3.09476 4.78612 3.75153 4.7044C3.77803 4.70088 3.80426 4.69638 3.83027 4.6909L13.8203 2.59121L4.73615 11.6701V10.687C4.7378 10.0088 4.4677 9.3582 3.98627 8.88053L2.75868 7.65147C2.28587 7.18902 2.12305 6.49493 2.34098 5.87047ZM13.3059 14.1703C13.2999 14.1965 13.2962 14.2228 13.2924 14.249C13.1622 15.1989 12.2866 15.8634 11.3367 15.7331C10.9614 15.6817 10.6132 15.5089 10.3453 15.2411L9.117 14.0128C8.63909 13.5312 7.98823 13.2612 7.30978 13.2629H6.32667L15.4086 4.17875L13.3059 14.1703Z" fill="#FCF5FE"/>
</g>
<defs>
<clipPath id="clip0_1_1390">
<rect width="18" height="18" fill="white"/>
</clipPath>
</defs>
</svg>
