<svg width="21" height="21" viewBox="0 0 21 21" fill="none" xmlns="http://www.w3.org/2000/svg">
<g clip-path="url(#clip0_1_1393)">
<path d="M10.5 0.5C8.52219 0.5 6.58879 1.08649 4.9443 2.1853C3.29981 3.28412 2.01809 4.8459 1.26121 6.67317C0.504333 8.50043 0.306299 10.5111 0.692152 12.4509C1.078 14.3907 2.03041 16.1725 3.42894 17.5711C4.82746 18.9696 6.60929 19.922 8.5491 20.3079C10.4889 20.6937 12.4996 20.4957 14.3268 19.7388C16.1541 18.9819 17.7159 17.7002 18.8147 16.0557C19.9135 14.4112 20.5 12.4778 20.5 10.5C20.4971 7.84872 19.4426 5.30684 17.5679 3.4321C15.6932 1.55736 13.1513 0.502868 10.5 0.5V0.5ZM10.5 18C9.01664 18 7.5666 17.5601 6.33323 16.736C5.09986 15.9119 4.13857 14.7406 3.57091 13.3701C3.00325 11.9997 2.85473 10.4917 3.14411 9.03682C3.4335 7.58197 4.14781 6.24559 5.1967 5.1967C6.2456 4.14781 7.58197 3.4335 9.03683 3.14411C10.4917 2.85472 11.9997 3.00325 13.3701 3.5709C14.7406 4.13856 15.9119 5.09985 16.736 6.33322C17.5601 7.56659 18 9.01664 18 10.5C17.9978 12.4884 17.2069 14.3948 15.8009 15.8009C14.3948 17.2069 12.4885 17.9978 10.5 18Z" fill="#992E9D"/>
<path d="M10.5043 16.3335C11.1947 16.3335 11.7543 15.7739 11.7543 15.0835C11.7543 14.3931 11.1947 13.8335 10.5043 13.8335C9.81398 13.8335 9.25433 14.3931 9.25433 15.0835C9.25433 15.7739 9.81398 16.3335 10.5043 16.3335Z" fill="#992E9D"/>
<path d="M11.131 4.65544C10.6213 4.56405 10.0977 4.58556 9.59719 4.71845C9.09667 4.85134 8.63138 5.09237 8.23411 5.42457C7.83683 5.75677 7.51725 6.17205 7.29786 6.64114C7.07848 7.11024 6.96464 7.62174 6.96436 8.1396C6.96436 8.47112 7.09605 8.78906 7.33047 9.02348C7.56489 9.2579 7.88283 9.3896 8.21435 9.3896C8.54587 9.3896 8.86382 9.2579 9.09824 9.02348C9.33266 8.78906 9.46435 8.47112 9.46435 8.1396C9.46511 7.95621 9.51434 7.77629 9.60707 7.61806C9.69979 7.45984 9.8327 7.32895 9.99232 7.23867C10.1519 7.14838 10.3326 7.10191 10.516 7.10396C10.6994 7.10601 10.8789 7.15652 11.0365 7.25036C11.1941 7.34419 11.324 7.47803 11.4132 7.63828C11.5023 7.79854 11.5475 7.97952 11.5442 8.16288C11.5408 8.34624 11.489 8.52545 11.3941 8.68235C11.2991 8.83924 11.1644 8.96824 11.0035 9.05626C10.4879 9.27222 10.0497 9.6392 9.74654 10.1089C9.44341 10.5786 9.28955 11.1291 9.30518 11.6879C9.30518 12.0194 9.43688 12.3374 9.6713 12.5718C9.90572 12.8062 10.2237 12.9379 10.5552 12.9379C10.8867 12.9379 11.2046 12.8062 11.4391 12.5718C11.6735 12.3374 11.8052 12.0194 11.8052 11.6879C11.8044 11.6271 11.8089 11.5663 11.8185 11.5063C11.9352 11.3997 12.0676 11.3118 12.211 11.2454C12.8512 10.8926 13.3664 10.3502 13.686 9.69282C14.0055 9.03542 14.1137 8.29521 13.9958 7.57384C13.8778 6.85247 13.5394 6.1853 13.0271 5.66395C12.5147 5.14261 11.8536 4.79264 11.1343 4.6621L11.131 4.65544Z" fill="#992E9D"/>
</g>
<defs>
<clipPath id="clip0_1_1393">
<rect width="20" height="20" fill="white" transform="translate(0.5 0.5)"/>
</clipPath>
</defs>
</svg>
